<?xml version="1.0" encoding="utf-8"?>
<!-- Generator: Adobe Illustrator 26.0.1, SVG Export Plug-In . SVG Version: 6.00 Build 0)  -->
<svg version="1.1" id="Layer_1" xmlns="http://www.w3.org/2000/svg" xmlns:xlink="http://www.w3.org/1999/xlink" x="0px" y="0px"
	 viewBox="0 0 783.4 665.1" style="enable-background:new 0 0 783.4 665.1;" xml:space="preserve">
<style type="text/css">
	.st0{fill:#CCCCCC;}
	.st1{fill:#3F3D56;}
	.st2{fill:#E03854;}
</style>
<path class="st0" d="M140.2,274.2c-0.6,0-1.1-0.1-1.6-0.3c-1.7-0.7-2.9-2.3-2.9-4.2v-47c0-3.3-2.7-6-6-6H120c-8.3,0-15-6.7-15-15
	v-94.6c0-8.3,6.7-15,15-15h339.7c8.3,0,15,6.7,15,15v94.6c0,8.3-6.7,15-15,15H197.5c-1.7,0-3.3,0.7-4.4,1.9l-49.6,54.1
	C142.6,273.7,141.4,274.2,140.2,274.2z M120,94.1c-7.2,0-13,5.8-13,13v94.6c0,7.2,5.8,13,13,13h9.6c4.4,0,8,3.6,8,8v47
	c0,1.4,1.1,2.5,2.5,2.5c0.7,0,1.4-0.3,1.8-0.8l49.6-54.1c1.5-1.7,3.7-2.6,5.9-2.6h262.2c7.2,0,13-5.8,13-13v-94.6
	c0-7.2-5.8-13-13-13H120z"/>
<circle class="st0" cx="141.8" cy="121.6" r="13.1"/>
<path class="st0" d="M444.4,194.2H135.3c-3.9,0-7-3.1-7-7c0-3.9,3.1-7,7-7c0,0,0,0,0,0h309.1c3.9,0,7,3.1,7,7
	C451.4,191.1,448.3,194.2,444.4,194.2C444.4,194.2,444.4,194.2,444.4,194.2z"/>
<path class="st0" d="M343.7,164.5H135.3c-3.9,0-7-3.1-7-7c0-3.9,3.1-7,7-7c0,0,0,0,0,0h208.4c3.9,0,7,3.1,7,7
	S347.6,164.5,343.7,164.5C343.7,164.5,343.7,164.5,343.7,164.5z"/>
<path class="st0" d="M140.2,607.8c-0.6,0-1.1-0.1-1.6-0.3c-1.7-0.7-2.9-2.3-2.9-4.2v-47c0-3.3-2.7-6-6-6H120c-8.3,0-15-6.7-15-15
	v-94.6c0-8.3,6.7-15,15-15h339.7c8.3,0,15,6.7,15,15v94.6c0,8.3-6.7,15-15,15H197.5c-1.7,0-3.3,0.7-4.4,1.9l-49.6,54.1
	C142.6,607.3,141.4,607.8,140.2,607.8z M120,427.7c-7.2,0-13,5.8-13,13v94.6c0,7.2,5.8,13,13,13h9.6c4.4,0,8,3.6,8,8v47
	c0,1.4,1.1,2.5,2.5,2.5c0.7,0,1.4-0.3,1.8-0.8l49.6-54.1c1.5-1.7,3.7-2.6,5.9-2.6h262.2c7.2,0,13-5.8,13-13v-94.6
	c0-7.2-5.8-13-13-13L120,427.7z"/>
<path class="st1" d="M641.8,434.5c-1.3,0-2.5-0.5-3.3-1.5l-49.6-54.1c-1.1-1.2-2.7-1.9-4.4-1.9H322.3c-8.3,0-15-6.7-15-15v-94.6
	c0-8.3,6.7-15,15-15H662c8.3,0,15,6.7,15,15v94.6c0,8.3-6.7,15-15,15h-9.6c-3.3,0-6,2.7-6,6v47c0,1.9-1.1,3.5-2.9,4.2
	C643,434.4,642.4,434.5,641.8,434.5z M322.3,254.3c-7.2,0-13,5.8-13,13v94.6c0,7.2,5.8,13,13,13h262.2c2.2,0,4.4,0.9,5.9,2.6
	l49.6,54.1c0.9,1,2.5,1.1,3.5,0.2c0.5-0.5,0.8-1.1,0.8-1.8v-47c0-4.4,3.6-8,8-8h9.6c7.2,0,13-5.8,13-13v-94.6c0-7.2-5.8-13-13-13
	L322.3,254.3z"/>
<circle class="st0" cx="141.8" cy="455.2" r="13.1"/>
<path class="st0" d="M444.4,527.8H135.3c-3.9,0-7-3.1-7-7c0-3.9,3.1-7,7-7c0,0,0,0,0,0h309.1c3.9,0,7,3.1,7,7
	S448.3,527.8,444.4,527.8C444.4,527.8,444.4,527.8,444.4,527.8z"/>
<path class="st0" d="M343.7,498.1H135.3c-3.9,0-7-3.1-7-7c0-3.9,3.1-7,7-7c0,0,0,0,0,0h208.4c3.9,0,7,3.1,7,7
	C350.7,494.9,347.6,498.1,343.7,498.1C343.7,498.1,343.7,498.1,343.7,498.1z"/>
<circle class="st1" cx="344.1" cy="280.9" r="13.1"/>
<path class="st2" d="M646.7,353.6H337.6c-3.9,0-7-3.1-7-7s3.1-7,7-7c0,0,0,0,0,0h309.1c3.9,0,7,3.1,7,7S650.5,353.6,646.7,353.6
	C646.7,353.6,646.7,353.6,646.7,353.6z"/>
<path class="st2" d="M546,323.8H337.6c-3.9,0-7-3.1-7-7c0-3.9,3.1-7,7-7c0,0,0,0,0,0H546c3.9,0,7,3.1,7,7
	C553,320.7,549.9,323.8,546,323.8C546,323.8,546,323.8,546,323.8z"/>
</svg>
