<?xml version="1.0" encoding="utf-8"?>
<!-- Generator: Adobe Illustrator 26.0.1, SVG Export Plug-In . SVG Version: 6.00 Build 0)  -->
<svg version="1.1" id="Layer_1" xmlns="http://www.w3.org/2000/svg" xmlns:xlink="http://www.w3.org/1999/xlink" x="0px" y="0px"
	 viewBox="0 0 498.5 467.1" style="enable-background:new 0 0 498.5 467.1;" xml:space="preserve">
<style type="text/css">
	.st0{fill:#FF6584;}
	.st1{fill:#E6E6E6;}
	.st2{fill:#FFFFFF;}
	.st3{fill:#F2F2F2;}
	.st4{fill:#6C63FF;}
	.st5{fill:#F0F0F0;}
	.st6{fill:#E03854;}
	.st7{fill:#3F3D56;}
	.st8{fill:#CCCCCC;}
	.st9{fill:#FFB8B8;}
	.st10{fill:#2F2E41;}
	.st11{fill:#A0616A;}
</style>
<path class="st0" d="M297.8,66c-6.1,8.4-10.8,17.7-14,27.6c-2.8,8.7-4.9,17.5-6.2,26.5c-0.7-0.3-1.3-0.5-2-0.9
	c-14.4-7-20.3-24.3-13.4-38.6c4.8-10,14.9-16.3,26-16.3c2.5,0,4.9,0.3,7.3,0.9C296.4,65.5,297.1,65.7,297.8,66z"/>
<path class="st1" d="M30.1,400c2-16,11.9-31.7,27.1-36.9c-6,16.4-6,34.5,0,50.9c2.3,6.3,5.6,13.1,3.4,19.5c-1.4,4-4.7,7-8.5,8.9
	c-3.7,1.9-7.9,2.8-12,3.7l-0.8,0.7C32.9,432,28.1,415.9,30.1,400z"/>
<path class="st2" d="M57.4,363.3c-8.9,9.9-14.4,22.4-15.8,35.7c-0.3,2.8-0.2,5.7,0.3,8.5c0.6,2.7,2,5.2,3.9,7.3c1.8,1.9,3.8,3.7,5,6
	c1.3,2.4,1.4,5.3,0.5,7.8c-1.1,3.2-3.3,5.8-5.5,8.2c-2.5,2.7-5.1,5.5-6.1,9.2c-0.1,0.4-0.8,0.2-0.7-0.2c1.8-6.3,7.9-9.9,10.9-15.6
	c1.4-2.6,1.9-5.7,0.7-8.5c-1.1-2.4-3.2-4.3-5-6.2c-1.9-2-3.3-4.3-4.1-7c-0.7-2.8-0.9-5.7-0.6-8.5c0.5-6.4,2-12.7,4.5-18.7
	c2.8-6.8,6.7-13.1,11.6-18.6C57.3,362.5,57.7,363,57.4,363.3L57.4,363.3z"/>
<path class="st2" d="M41.8,394.7c-4.5-1.1-7.6-5.3-7.2-10c0-0.5,0.7-0.4,0.7,0c-0.3,4.3,2.5,8.3,6.8,9.3
	C42.5,394.2,42.3,394.8,41.8,394.7L41.8,394.7z"/>
<path class="st2" d="M44.8,414c4-2.4,6.9-6.1,8.2-10.6c0.1-0.4,0.8-0.2,0.7,0.2c-1.4,4.6-4.4,8.5-8.5,11
	C44.8,414.8,44.4,414.2,44.8,414z"/>
<path class="st2" d="M48.8,375.3c1.6,0.8,3.6,0.7,5.1-0.3c0.4-0.2,0.7,0.4,0.3,0.6c-1.7,1-3.8,1.1-5.6,0.3c-0.2-0.1-0.3-0.3-0.2-0.4
	C48.4,375.3,48.6,375.2,48.8,375.3L48.8,375.3z"/>
<path class="st1" d="M103.7,391.6c-0.2,0.2-0.5,0.3-0.7,0.5c-3.2,2.1-6.2,4.5-9.1,7.1c-0.2,0.2-0.4,0.4-0.7,0.6
	C86.5,406.1,81,413.6,77,422c-1.6,3.3-2.9,6.8-4,10.3c-1.5,4.9-2.7,10.3-5.6,14.2c-0.3,0.4-0.6,0.8-1,1.2H40.3
	c-0.1,0-0.1-0.1-0.2-0.1h-1c0-0.2,0.1-0.4,0.1-0.6c0-0.1,0.1-0.2,0.1-0.3c0-0.1,0-0.1,0-0.2c0,0,0,0,0-0.1s0-0.1,0-0.2
	c0.3-1.1,0.5-2.1,0.8-3.2l0,0c2.1-8.2,5.1-16.1,9-23.6c0.1-0.2,0.2-0.4,0.4-0.7c1.8-3.3,3.9-6.5,6.2-9.4c1.3-1.6,2.6-3.2,4.1-4.7
	c3.7-3.8,8-7.1,12.7-9.5c9.4-5,20.3-6.9,30.4-3.8C103.2,391.4,103.5,391.5,103.7,391.6z"/>
<path class="st2" d="M103.7,391.9c-13.1,2.6-25,9.2-34.1,19c-2,2.1-3.6,4.4-4.9,7c-1.1,2.6-1.6,5.4-1.3,8.1c0.2,2.6,0.8,5.2,0.4,7.8
	c-0.4,2.7-2,5.1-4.3,6.5c-2.8,1.9-6.1,2.6-9.4,3.3c-3.6,0.7-7.4,1.4-10.4,3.6c-0.4,0.3-0.8-0.3-0.4-0.6c5.3-3.9,12.3-3.1,18-5.9
	c2.7-1.3,5-3.4,5.7-6.4c0.6-2.6,0-5.3-0.2-8c-0.3-2.7,0-5.5,0.9-8c1.1-2.6,2.7-5.1,4.6-7.2c4.3-4.8,9.3-9,14.8-12.2
	c6.3-3.8,13.2-6.4,20.5-7.9C104,391.1,104.1,391.8,103.7,391.9L103.7,391.9z"/>
<path class="st2" d="M72.3,407.6c-3-3.6-2.9-8.8,0.2-12.3c0.3-0.3,0.8,0.1,0.5,0.5c-2.9,3.3-3,8.1-0.2,11.5
	C73.2,407.5,72.6,408,72.3,407.6L72.3,407.6z"/>
<path class="st2" d="M63.1,424.8c4.6,0.5,9.2-0.8,12.9-3.5c0.4-0.3,0.8,0.3,0.4,0.6c-3.9,2.9-8.7,4.1-13.4,3.6
	C62.5,425.4,62.7,424.7,63.1,424.8z"/>
<path class="st2" d="M89.6,396.2c0.8,1.6,2.4,2.7,4.2,2.9c0.5,0,0.3,0.7-0.1,0.7c-2-0.2-3.7-1.4-4.7-3.2c-0.1-0.2-0.1-0.4,0.1-0.5
	C89.3,396,89.5,396.1,89.6,396.2z"/>
<path class="st1" d="M307.1,409.8c-10.9-11.8-16.5-29.6-10.6-44.6c8.7,15.2,22.4,26.9,38.9,32.9c6.3,2.3,13.6,4.2,17.1,10
	c2.1,3.6,2.3,8.1,1.3,12.2s-3,7.8-4.9,11.6v1C333.4,428.5,318,421.7,307.1,409.8z"/>
<path class="st2" d="M296.8,365.3c1.9,13.2,7.8,25.5,17,35.1c1.9,2.1,4.2,3.9,6.7,5.3c2.5,1.3,5.3,1.9,8.1,1.7
	c2.6-0.1,5.3-0.5,7.8,0.1c2.7,0.6,5,2.3,6.3,4.7c1.7,2.9,2.3,6.2,2.7,9.5c0.5,3.7,0.9,7.5,3,10.6c0.3,0.4-0.4,0.8-0.6,0.4
	c-3.6-5.5-2.4-12.5-4.9-18.3c-1.1-2.8-3.1-5.2-6.1-6c-2.6-0.7-5.3-0.3-8-0.2c-2.7,0.2-5.4-0.3-7.9-1.4c-2.6-1.3-4.9-3-6.9-5
	c-4.6-4.5-8.4-9.8-11.4-15.5c-3.4-6.5-5.7-13.6-6.7-20.9C296,364.9,296.7,364.9,296.8,365.3L296.8,365.3z"/>
<path class="st2" d="M310.7,397.5c-3.8,2.7-9,2.4-12.3-0.9c-0.3-0.3,0.2-0.8,0.5-0.5c3.1,3.1,7.9,3.4,11.4,0.8
	C310.7,396.6,311.1,397.2,310.7,397.5z"/>
<path class="st2" d="M327.3,407.6c0.8-4.6-0.2-9.2-2.8-13.1c-0.3-0.4,0.4-0.8,0.6-0.4c2.6,4,3.6,8.9,2.9,13.6
	C327.9,408.3,327.2,408.1,327.3,407.6L327.3,407.6z"/>
<path class="st2" d="M300.3,379.6c1.7-0.7,2.8-2.3,3.1-4.1c0.1-0.5,0.8-0.3,0.7,0.2c-0.3,2-1.6,3.7-3.4,4.5c-0.2,0.1-0.4,0-0.5-0.1
	C300.1,379.9,300.2,379.7,300.3,379.6L300.3,379.6z"/>
<path class="st1" d="M348.3,348.2c0,0.3-0.1,0.6-0.1,0.9c-0.5,3.8-0.6,7.7-0.5,11.5c0,0.3,0,0.6,0,0.9c0.5,9.2,2.7,18.3,6.5,26.8
	c1.5,3.4,3.3,6.6,5.3,9.7c2.8,4.3,6.1,8.7,7.3,13.5c0.1,0.5,0.2,1,0.3,1.5l-17,20c-0.1,0-0.1,0.1-0.2,0.1l-0.6,0.8
	c-0.1-0.2-0.2-0.3-0.3-0.5c-0.1-0.1-0.1-0.2-0.2-0.3c0-0.1-0.1-0.1-0.1-0.2c0,0,0,0,0-0.1s-0.1-0.1-0.1-0.2
	c-0.6-0.9-1.3-1.8-1.9-2.7l0,0c-4.9-6.9-9-14.3-12.2-22.1c-0.1-0.2-0.2-0.5-0.3-0.7c-1.4-3.5-2.4-7.2-3.2-10.8
	c-0.4-2-0.7-4.1-0.9-6.1c-0.5-5.3-0.2-10.7,1-15.9c2.3-10.4,7.9-19.9,16.7-25.7C347.8,348.5,348,348.4,348.3,348.2z"/>
<path class="st2" d="M348.5,348.5c-6.5,11.7-9.1,25-7.5,38.3c0.3,2.9,1,5.6,2.2,8.3c1.2,2.5,3.1,4.7,5.4,6.2
	c2.1,1.5,4.5,2.8,6.2,4.8c1.8,2.1,2.6,4.8,2.2,7.5c-0.4,3.3-1.9,6.4-3.6,9.2c-1.8,3.2-3.7,6.5-4,10.3c0,0.5-0.7,0.4-0.7-0.1
	c0.4-6.6,5.6-11.4,7.2-17.6c0.7-2.9,0.6-6-1.2-8.5c-1.6-2.1-4.1-3.5-6.2-5c-2.3-1.5-4.2-3.5-5.5-5.9c-1.3-2.6-2.1-5.3-2.5-8.2
	c-0.9-6.4-0.8-12.9,0.3-19.2c1.2-7.3,3.7-14.3,7.2-20.7C348.1,347.7,348.7,348.1,348.5,348.5L348.5,348.5z"/>
<path class="st2" d="M340.2,382.6c-4.7-0.1-8.6-3.5-9.3-8.1c-0.1-0.5,0.6-0.6,0.7-0.1c0.6,4.3,4.3,7.5,8.6,7.5
	C340.7,381.9,340.7,382.6,340.2,382.6L340.2,382.6z"/>
<path class="st2" d="M347.4,400.7c3.3-3.2,5.4-7.5,5.7-12.1c0-0.5,0.7-0.4,0.7,0.1c-0.3,4.8-2.4,9.3-5.9,12.6
	C347.5,401.5,347,401,347.4,400.7L347.4,400.7z"/>
<path class="st2" d="M342.7,362c1.8,0.4,3.6-0.1,4.9-1.4c0.3-0.3,0.8,0.2,0.5,0.5c-1.4,1.4-3.5,2-5.4,1.5c-0.2,0-0.3-0.2-0.3-0.4
	C342.3,362.2,342.5,362,342.7,362L342.7,362z"/>
<circle class="st3" cx="200.7" cy="367.5" r="17.5"/>
<circle class="st4" cx="187.7" cy="209.9" r="6.5"/>
<circle class="st5" cx="98.3" cy="282.5" r="6.5"/>
<path class="st6" d="M495.7,0H2.8C1.2,0,0,1.2,0,2.7v15.8c0,1.5,1.2,2.7,2.8,2.7h493c1.5,0,2.8-1.2,2.8-2.7V2.7
	C498.5,1.2,497.3,0,495.7,0z"/>
<circle id="bf385270-786a-48fa-9396-8c3f6b000715" class="st2" cx="15.6" cy="9.8" r="3.8"/>
<circle id="b392df74-abbd-431b-8c66-4fa606d2fd26" class="st2" cx="30.1" cy="9.8" r="3.8"/>
<circle id="b54b329d-692f-4021-a3df-82df9db82412" class="st2" cx="44.6" cy="9.8" r="3.8"/>
<path class="st2" d="M469.1,4.7h-16.7c-0.7,0-1.2,0.6-1.2,1.2s0.6,1.2,1.2,1.2h16.7c0.7,0,1.2-0.6,1.2-1.2S469.8,4.7,469.1,4.7
	L469.1,4.7z"/>
<path class="st2" d="M469.1,9.4h-16.7c-0.7,0-1.2,0.6-1.2,1.2s0.6,1.2,1.2,1.2h16.7c0.7,0,1.2-0.6,1.2-1.2S469.8,9.4,469.1,9.4
	L469.1,9.4z"/>
<path class="st2" d="M469.1,14h-16.7c-0.7,0-1.2,0.6-1.2,1.2s0.6,1.2,1.2,1.2l0,0h16.7c0.7,0,1.2-0.6,1.2-1.2
	C470.3,14.6,469.8,14,469.1,14L469.1,14z"/>
<path id="a53fb1f8-3aef-4d80-830f-cc7df7624a2a-4446" class="st1" d="M18,138c-1.4,0-2.5,1.8-2.5,4s1.1,4,2.5,4h188.5
	c1.4,0,2.5-1.8,2.5-4s-1.1-4-2.5-4H18z"/>
<path id="bb62af06-a55e-49de-a8ab-ddae6c01ce32-4447" class="st1" d="M18,161.3c-1.4,0-2.5,1.8-2.5,4s1.1,4,2.5,4h188.5
	c1.4,0,2.5-1.8,2.5-4s-1.1-4-2.5-4H18z"/>
<path id="be19a32e-edc4-40d3-83d1-fa4636256d4d-4448" class="st1" d="M18,184.3c-1.4,0-2.5,1.8-2.5,4s1.1,4,2.5,4h121
	c1.4,0,2.5-1.8,2.5-4s-1.1-4-2.5-4H18z"/>
<path class="st3" d="M4.4,441.4c0.1-0.1,0.1-0.3,0.2-0.4C4.7,439.7,4.4,441.4,4.4,441.4z"/>
<path class="st1" d="M38.7,423.3c-2.4,0-4.8,0.2-7.1,0.5h-0.3c-15.6,2.5-27,16.3-26.4,32.1l0.1,2.9c0.1,1.8,0.1,3.8,0.2,5.9
	c0,1.1,0.9,1.9,1.9,1.9H389c26.9-0.3,53.8-0.6,79.8-1.1c4.9,0,9.8-0.4,14.6-1.3c7.2-1.5,12.2-4.4,15.3-9l0,0
	c3.8-5.7,4-12.8,3.7-20.8c-0.5-16.2-0.9-33.3-1.4-50.3c-0.4-15-0.8-29.9-1.2-44.2c-0.3-8.5-0.8-16-5.2-21.7
	c-4.7-6.2-13.4-9.3-25.7-9.3c-0.1,0-0.3,0-0.4,0c-38.5,0.2-76.7,23.2-95,57.1c-2.1,3.9-4.1,8.1-6,12.1c-2.7,6.1-5.8,12-9.2,17.7
	c-1.8,2.9-3.8,5.6-6.1,8.2c-0.1,0.2-0.3,0.4-0.5,0.5c-0.4,0.5-0.8,0.9-1.3,1.3c-2.3,2.3-4.9,4.4-7.7,6.1l-0.3,0.2
	c-0.2,0.1-0.4,0.3-0.6,0.4c-1.5,0.9-3.1,1.6-4.8,2.2c-7,2.7-14.9,3.3-23.6,1.9c-8.2-1.4-16.1-4.2-23.4-8.3
	c-8-4.4-15.5-9.9-22.8-15.2c-3.2-2.3-6.5-4.7-9.8-7c-0.6-0.4-1.2-0.8-1.8-1.3c-4-2.7-7.7-5-11.1-6.9c-8.2-4.6-17.2-7.5-26.6-8.5
	c-9.6-0.9-18,0.8-25.1,5.1c-2,1.2-3.9,2.6-5.7,4.2c-8.4,7.5-13.5,18.6-18.5,29.4c-6.2,13.4-12.6,27.2-25.3,34.3
	c-14.6,8.3-36,4.8-51.1-1.1c-4.7-1.9-9.5-4-14.1-6.1c-1.9-0.8-3.7-1.7-5.6-2.5c-3.6-1.6-6.6-2.9-9.4-3.9l-0.9-0.3
	c-0.5-0.2-1-0.4-1.5-0.5c-3.1-1.1-6.2-2.1-9.3-2.9l-0.7-0.2c-1.4-0.3-2.8-0.6-4.1-0.8l-0.5-0.1C43.9,423.5,41.3,423.3,38.7,423.3z"
	/>
<path class="st1" d="M252.8,423.7c-6.4-23.9,7.8-47.2,24.3-63.4c8.8-8.6,18.6-16.1,28.1-23.8c9.2-7.3,17.9-15.2,26.1-23.5
	c15.9-16.3,29.8-34.9,39-55.9c8.7-19.9,12.9-41.6,10.8-63.3c-1.9-20.6-9.3-40.9-22.9-56.7c-1.7-2-3.5-3.9-5.3-5.7
	c-1-1-2.5,0.6-1.5,1.5c15.2,14.7,24,34.7,27,55.4c3.1,21.4-0.1,43.2-8.1,63.3c-8.5,21.3-22.1,40.4-37.8,57
	c-7.9,8.3-16.3,16.1-25.2,23.4c-9.5,7.8-19.3,15.2-28.4,23.6c-16.7,15.4-31.6,36.6-29.6,60.4c0.2,2.8,0.7,5.5,1.4,8.2
	c0.2,0.6,0.8,0.9,1.4,0.7C252.6,424.8,252.9,424.3,252.8,423.7L252.8,423.7z"/>
<path class="st1" d="M319.3,287.6c0.3,0.5,0.1,1.2-0.4,1.5s-1.1,0.1-1.4-0.4c-2.5-4.3-4.8-8.6-7-13c-1.5-3-2.9-6-4.3-9.1
	c-15-34.1-21.5-71.4-18.8-108.5c0.7-10.2,2.2-20.3,4.4-30.2c0.5-2,0.9-4,1.5-6c0.8-0.1,1.6-0.3,2.3-0.5c-4.7,17-6.6,35-6.7,52.6
	c-0.1,19.9,2.5,39.7,7.6,58.9C301.7,252,309.3,270.4,319.3,287.6z"/>
<path class="st1" d="M461.8,228.8c-8.1,17.5-21.8,31.9-37.1,43.3c-17.4,13-37,22.3-56.5,31.6c-1.2,0.6-2.3-1.3-1.1-1.9
	c4.7-2.2,9.3-4.4,13.9-6.7c18.5-9.1,36.8-19,52.3-32.8c14.3-12.7,26-28.5,31.3-47.1c5.5-19.3,4.5-40.2-1.5-59.3
	c-3.7-11.6-9-22.6-15.8-32.7c-2.2-3.4-4.6-6.7-7.1-9.9c-1.8-2.3-3.7-4.6-5.6-6.9c-6.3-7.3-13.2-14-20.6-20.2
	c-7.7-6.6-16.2-12.2-25.3-16.7c-9.4-4.6-19.6-7-30-7.3c-9.8-0.1-19.5,2.4-28,7.4c-5.8,3.5-11,7.8-15.4,12.9c-0.3-0.7-0.6-1.5-1-2.1
	c7.6-8.5,17.2-15.1,28.3-18.2c20.5-5.8,42.1,1,59.4,12.3c8.4,5.6,16.3,12.1,23.5,19.2c2.7,2.6,5.3,5.3,7.8,8.1
	c3,3.3,5.9,6.8,8.7,10.3c4.1,5.3,0,0,0,0c0.9,1.2,1.8,2.4,2.7,3.6c11.7,15.9,20.4,34.1,23.9,53.7
	C472.1,189.2,470.4,210.3,461.8,228.8z"/>
<path class="st1" d="M448,207.8c-8.1,17.5-21.8,31.9-37.1,43.3c-16.6,12.4-35.3,21.5-54,30.4c-0.8,0.4-1.7,0.8-2.6,1.2
	c-0.3,0.1-0.6,0.2-0.9,0c-0.6-0.2-0.9-0.7-0.7-1.3c0.1-0.3,0.3-0.5,0.5-0.6c0.7-0.4,1.5-0.7,2.2-1c1.2-0.6,2.5-1.2,3.7-1.8
	c2.7-1.3,5.4-2.6,8-3.9c18.5-9.1,36.8-19,52.3-32.8c14.3-12.7,26-28.5,31.3-47.1c5.5-19.3,4.5-40.2-1.5-59.3
	c-2.4-7.5-5.4-14.8-9.2-21.7c-2.1-4-4.5-7.8-7-11.6c-3.8-5.7-7.9-11.1-12.4-16.2c-6.3-7.3-13.2-14-20.6-20.2
	c-7.7-6.6-16.2-12.2-25.3-16.7c-9.4-4.6-19.6-7-30-7.3c-9.8-0.1-19.5,2.4-28,7.4c-7.4,4.5-13.9,10.4-19,17.4
	c-6.1,8.4-10.8,17.7-14,27.6c-2.8,8.7-4.9,17.5-6.2,26.5c-1.6,10.8-2.4,21.8-2.5,32.7c-0.1,19.9,2.5,39.7,7.6,58.9
	s12.8,37.7,22.8,54.9l0.1,0.1c0.2,0.6-0.1,1.2-0.6,1.4c-0.5,0.2-1,0-1.3-0.4c-2.5-4.3-4.8-8.6-7-13c-18.1-36.5-26-77.1-23-117.6
	c0.4-5.9,1.1-11.9,2-17.8c0.6-4.2,1.4-8.3,2.3-12.5c2.1-10.2,5.5-20,10.1-29.3c2.1-4.3,4.7-8.3,7.5-12.2
	c8.3-11.2,19.5-20.3,33.1-24.1c20.5-5.8,42.1,1,59.4,12.3c8.4,5.6,16.3,12.1,23.5,19.2c7,6.8,13.5,14.2,19.3,22
	c4.1,5.5,7.7,11.3,11,17.3l0,0c2,3.6,3.7,7.3,5.3,11.1c3.5,8.1,6,16.5,7.6,25.2C458.4,168.3,456.6,189.3,448,207.8z"/>
<path class="st1" d="M381.2,215.4c9.6-0.1,18.8-3.4,26.2-9.6c7.5-6.3,12.4-15.1,13.9-24.8c0.8-5.5,0.6-11.1-0.8-16.4
	c-0.2-0.6-0.8-0.9-1.4-0.7c-0.5,0.2-0.9,0.7-0.7,1.3c2.3,9.1,1.3,18.7-2.9,27.1c-6.6,12.8-19.8,20.8-34.2,20.9c-0.6,0-1.1,0.5-1,1.1
	C380.1,214.9,380.6,215.3,381.2,215.4L381.2,215.4z"/>
<path class="st1" d="M299.7,338.6l-7-12.3c-0.3-0.5-1-0.7-1.5-0.3c-0.5,0.3-0.6,0.9-0.4,1.4l7,12.3c0.3,0.5,1,0.7,1.5,0.3
	C299.8,339.8,300,339.1,299.7,338.6z"/>
<path class="st1" d="M259,88c-2.1-1.5-4.4-3-6.9-3c-6.2,0.1-9.5,9.2-15.7,8.9c-3.9-0.2-6.6-4.2-10.2-5.7c-4.8-1.9-10.9,1.8-11.4,6.9
	l0.6-0.6c18.6,4.5,37.8,5.4,56.8,2.6C267.7,94.1,263.3,91,259,88z"/>
<circle class="st2" cx="233.4" cy="450.6" r="6.2"/>
<circle class="st2" cx="251.5" cy="450.6" r="6.2"/>
<circle class="st2" cx="269.6" cy="450.6" r="6.2"/>
<ellipse class="st7" cx="251.5" cy="450.6" rx="5" ry="5"/>
<ellipse class="st6" cx="484.8" cy="251.8" rx="3.8" ry="4.5"/>
<path class="st8" d="M612.3,465.9c0,0.7-0.5,1.2-1.2,1.2H385.9c-0.7,0-1.2-0.5-1.2-1.2s0.5-1.2,1.2-1.2h225.3
	C611.8,464.7,612.3,465.3,612.3,465.9L612.3,465.9z"/>
<circle id="b8f08c5c-b476-40dd-b664-770adaae3509" class="st2" cx="98.4" cy="73.2" r="2.5"/>
<circle id="eee44b09-a27a-4be3-8c5b-6b6370df12ff" class="st2" cx="107.8" cy="73.2" r="2.5"/>
<circle id="a2d5f093-6500-400f-8de1-66712a079cc1" class="st2" cx="117.2" cy="73.2" r="2.5"/>
<rect id="e14e0169-ef8c-4de3-8e3e-1fb1636d9038" x="92.3" y="79" class="st2" width="315.3" height="1.8"/>
<rect id="ad9dc5de-4949-4eac-9eb5-22ff577a9f6a" x="56.1" y="69.1" class="st2" width="341.8" height="88.5"/>
<rect id="b859c105-7eee-4028-bc04-8285f6faca7e" x="56.3" y="172.1" class="st2" width="341.8" height="88.5"/>
<g id="aa41527c-9c03-4708-86c5-0d027f971362">
	<rect id="b2d77c21-275f-42a7-94e0-5b816ba20a4e" x="171.5" y="88.7" class="st1" width="185" height="8.2"/>
	<rect id="b25a2924-64e6-4438-87d6-1fb43933af96" x="171.5" y="109.3" class="st1" width="66" height="8.2"/>
	<rect id="b8fe27c9-e561-42fa-9287-e7ff86698f34" x="171.5" y="129.9" class="st1" width="131.4" height="8.2"/>
</g>
<path id="a368706a-11d6-41a2-bd00-6a6054248d43-4453" class="st6" d="M157.6,215.9c0,6-1.7,11.9-5,16.9c-0.7,1.1-1.4,2.1-2.3,3
	c-1.9,2.3-4.1,4.3-6.6,5.9c-0.7,0.4-1.4,0.9-2.1,1.3c-3.7,2-7.8,3.3-12,3.7c-1,0.1-1.9,0.1-2.9,0.1c-2.7,0-5.4-0.3-8-1
	c-1.5-0.4-2.9-0.9-4.3-1.5c-0.7-0.3-1.4-0.6-2.1-1c-1.6-0.9-3.2-1.9-4.7-3c-0.7-0.5-1.3-1.1-2-1.7c-12.5-11.6-13.3-31.2-1.7-43.7
	c11.6-12.5,31.2-13.3,43.7-1.7C154,199.1,157.6,207.3,157.6,215.9L157.6,215.9z"/>
<g id="a0fe7a2e-49bf-4761-b17e-3d52136366c5">
	<rect id="a077c903-9ff8-47f6-8a24-46120c36a494" x="124.8" y="201.5" class="st2" width="3.8" height="28.9"/>
	<rect id="a4f09271-2c50-4e11-a9a3-c26018ed4477" x="112.2" y="214" class="st2" width="28.9" height="3.8"/>
</g>
<g id="bd7f0843-9709-4a5c-8b0e-26656563f0b3">
	<rect id="e4567469-258f-4b3a-88b2-7a234fbc5498" x="166.9" y="191.7" class="st1" width="185" height="8.2"/>
	<rect id="b26a9710-740f-4201-9a9a-df254658921a" x="166.9" y="212.3" class="st1" width="66" height="8.2"/>
	<rect id="a1758efc-04f7-4da1-846b-fd169401f4c2" x="166.9" y="232.9" class="st1" width="131.4" height="8.2"/>
</g>
<circle id="f2fdcd7e-077f-47c5-987d-3f56ec08fcb2" class="st2" cx="69.2" cy="48.9" r="2.5"/>
<circle id="bb8af87f-8865-4134-a554-08faac1a89d0" class="st2" cx="78.9" cy="48.9" r="2.5"/>
<circle id="bd4c0ca0-b96c-4f92-a965-84f83cdee98a" class="st2" cx="59.5" cy="48.9" r="2.5"/>
<path class="st7" d="M145.2,138.2c-2.7-1.4-5.5-2.6-8.4-3.5l-0.4-4.1l-15-1.6l-1.9,5.2l-5.4,2c-0.2,0.1-0.4,0.2-0.5,0.3h0
	c-0.6,0.4-1,1.1-1.1,1.8c-0.1,0.4,0,0.7,0,1.1l0.3,1.2c0.4,0.2,0.8,0.5,1.3,0.7l0.3,0.1c0.6,0.3,1.2,0.6,1.9,0.9
	c0.1,0.1,0.3,0.1,0.4,0.2c0,0,0,0,0,0c0.3,0.1,0.6,0.2,0.9,0.4c1,0.4,2,0.7,3.1,1c2.7,0.7,5.4,1.1,8.2,1.1c1,0,2,0,3-0.1
	c2.3-0.2,4.5-0.7,6.6-1.3c0,0,0,0,0,0c1.4-0.4,2.7-1,4-1.6c0,0,0,0,0,0c0.3-0.1,0.6-0.3,0.9-0.4l0.1-0.1c0.2-0.1,0.5-0.2,0.7-0.4
	c0.6-0.3,1.1-0.6,1.7-1c0.2-0.1,0.3-0.2,0.5-0.3c0.2-0.1,0.4-0.3,0.6-0.4C146.3,138.8,145.8,138.5,145.2,138.2z"/>
<path class="st7" d="M117,140.7l-0.9-4.2h-2.5c0,0,0,0-0.1,0h0c-0.9,0.1-1.7,0.4-2.5,0.9c-0.5,0.3-0.9,0.7-1.3,1.2
	c0.7,0.6,1.5,1.1,2.3,1.6l0,0c0.2,0.1,0.5,0.3,0.7,0.4c0.4,0.2,0.8,0.5,1.3,0.7l0.3,0.1c0.6,0.3,1.2,0.6,1.9,0.9
	c0.1,0.1,0.3,0.1,0.4,0.2c0,0,0,0,0,0c0.3,0.1,0.6,0.2,0.9,0.4L117,140.7z"/>
<circle class="st9" cx="128.3" cy="115.5" r="10.8"/>
<path class="st10" d="M121,110.2c1.1,1.3,3,1.7,4.8,1.9c4.1,0.2,8.2-0.1,12.2-1c0.2,2.4-0.4,5,1,7c0.7-2.4,1-4.9,1.1-7.3
	c0.1-1.1,0-2.1-0.4-3.1c-0.4-1-1.4-1.7-2.5-1.8c0.8-0.6,1.8-1,2.8-1.2l-3.4-1.7l0.9-0.9l-6.2-0.4l1.8-1.1c-2.7-0.4-5.5-0.5-8.2-0.3
	c-1.3,0.1-2.6,0.3-3.6,1c-1,0.7-1.6,2.2-1,3.3c-1.6,0.3-3,1.4-3.6,2.9c-0.4,1.2-0.5,2.5-0.3,3.7c0.2,2,0.7,3.9,1.4,5.8L121,110.2z"
	/>
<path class="st7" d="M158.7,103.8c-5.8-16.6-23.9-25.3-40.5-19.6C101.7,90,93,108.1,98.7,124.7c1.2,3.4,2.9,6.5,5.1,9.3
	c0.3,0.4,0.6,0.7,0.9,1.1c0,0,0,0,0.1,0.1c0.7,0.9,1.5,1.7,2.4,2.4c0.2,0.2,0.4,0.4,0.7,0.6c0.4,0.4,0.9,0.8,1.3,1.1
	c0.2,0.1,0.4,0.3,0.5,0.4c0.7,0.6,1.5,1.1,2.3,1.6l0,0c0.2,0.1,0.5,0.3,0.7,0.4c0.4,0.2,0.8,0.5,1.3,0.7l0.3,0.1
	c0.6,0.3,1.2,0.6,1.9,0.9c0.1,0.1,0.3,0.1,0.4,0.2c0,0,0,0,0,0c0.3,0.1,0.6,0.2,0.9,0.4c1,0.4,2,0.7,3.1,1c2.7,0.7,5.4,1.1,8.2,1.1
	c1,0,2,0,3-0.1c2.3-0.2,4.5-0.7,6.6-1.3c0,0,0,0,0,0c1.4-0.4,2.7-1,4-1.6c0,0,0,0,0,0c0.3-0.1,0.6-0.3,0.9-0.4l0.1-0.1
	c0.2-0.1,0.5-0.2,0.7-0.4c0.6-0.3,1.1-0.6,1.7-1c0.2-0.1,0.3-0.2,0.5-0.3c0.2-0.1,0.4-0.3,0.6-0.4c0.3-0.2,0.6-0.4,0.8-0.6
	c0.1-0.1,0.2-0.1,0.3-0.2C158.9,131.2,163.3,116.8,158.7,103.8L158.7,103.8z M146.9,138.1c-0.2,0.1-0.4,0.3-0.6,0.4
	c-0.2,0.1-0.4,0.3-0.6,0.4c-0.2,0.1-0.3,0.2-0.5,0.3l-0.1,0c-0.1,0.1-0.3,0.2-0.4,0.2c-0.5,0.3-1,0.6-1.4,0.9
	c-0.1,0-0.1,0.1-0.2,0.1c-0.2,0.1-0.4,0.2-0.6,0.3c0,0-0.1,0-0.1,0l0,0c-0.3,0.1-0.6,0.3-0.8,0.4c-1.1,0.5-2.2,1-3.3,1.3
	c-0.1,0.1-0.3,0.1-0.4,0.1c-2,0.6-4.2,1.1-6.3,1.3c-0.9,0.1-1.9,0.1-2.8,0.1c-2.6,0-5.2-0.3-7.8-1c-1.3-0.3-2.6-0.8-3.8-1.3
	c-0.1,0-0.1-0.1-0.2-0.1c-0.1,0-0.1-0.1-0.2-0.1c-0.1,0-0.1-0.1-0.2-0.1c-0.5-0.2-1.1-0.5-1.6-0.8l-0.3-0.1
	c-0.6-0.3-1.3-0.7-1.9-1.1c-0.2-0.1-0.4-0.2-0.5-0.3c0,0-0.1-0.1-0.1-0.1c-0.4-0.3-0.8-0.5-1.2-0.8c-0.3-0.2-0.5-0.4-0.8-0.6
	c-0.4-0.3-0.9-0.7-1.3-1c-0.2-0.2-0.4-0.4-0.6-0.6c-0.8-0.7-1.6-1.5-2.3-2.4c-0.2-0.3-0.5-0.5-0.7-0.8c-0.1-0.1-0.1-0.1-0.1-0.2
	c-10.3-13-8.1-31.9,4.9-42.2s31.9-8.1,42.2,4.9s8.1,31.9-4.9,42.2C147.2,137.9,147.1,138,146.9,138.1L146.9,138.1z"/>
<path class="st2" d="M429.1,256.3c-5.8-16.6-23.9-25.3-40.5-19.6c-16.6,5.8-25.3,23.9-19.6,40.5c1.2,3.4,2.9,6.5,5.1,9.3
	c0.3,0.4,0.6,0.7,0.9,1.1c0,0,0,0,0.1,0.1c0.7,0.9,1.5,1.7,2.4,2.4c0.2,0.2,0.4,0.4,0.7,0.6c0.4,0.4,0.9,0.8,1.3,1.1
	c0.9,0.7,1.8,1.4,2.8,2l0,0c0.6,0.4,1.3,0.8,1.9,1.1l0.3,0.1c0.6,0.3,1.2,0.6,1.9,0.9c0.1,0.1,0.3,0.1,0.4,0.2c0,0,0,0,0,0
	c1.3,0.5,2.6,1,4,1.4c2.7,0.7,5.4,1.1,8.2,1.1c1,0,2,0,3-0.1c2.3-0.2,4.5-0.7,6.6-1.3c0,0,0,0,0,0c1.4-0.4,2.7-1,4-1.6c0,0,0,0,0,0
	c0.3-0.1,0.6-0.3,0.9-0.4l0.1-0.1c0.2-0.1,0.5-0.2,0.7-0.4c0.6-0.3,1.1-0.6,1.7-1c0.2-0.1,0.3-0.2,0.5-0.3c0.5-0.3,1-0.7,1.5-1
	c0.1-0.1,0.2-0.1,0.3-0.2C429.3,283.7,433.7,269.2,429.1,256.3L429.1,256.3z"/>
<circle id="f79ae9d5-f4b5-4dd5-badc-cc4d2f5593dd" class="st10" cx="400.7" cy="261" r="14"/>
<path id="f9880a76-ad0b-4c2a-99b0-b23c20a810bd-4455" class="st10" d="M389.7,252.4c5-5.6,13.6-6.3,19.4-1.5
	c-0.1-0.1-0.2-0.2-0.3-0.3c-5.8-5.2-14.6-4.7-19.8,1.1c-5.2,5.8-4.7,14.6,1.1,19.8l0,0c0,0,0.1,0,0.1,0.1c0.1,0.1,0.2,0.2,0.4,0.3
	C385.1,266.6,384.7,258,389.7,252.4L389.7,252.4z"/>
<circle id="b01904a1-9532-4133-8cbd-470829617487" class="st11" cx="400.6" cy="265.9" r="9"/>
<path class="st6" d="M416.7,289.4v3c-0.6,0.4-1.1,0.7-1.7,1c-0.2,0.1-0.5,0.2-0.7,0.4l-0.1,0.1c-0.3,0.1-0.6,0.3-0.9,0.4
	c0,0,0,0,0,0c-1.3,0.6-2.6,1.1-4,1.6c0,0,0,0,0,0c-2.2,0.7-4.4,1.1-6.6,1.3c-1,0.1-2,0.1-3,0.1c-2.8,0-5.5-0.4-8.2-1.1
	c-1.4-0.4-2.7-0.8-4-1.4c0,0,0,0,0,0c-0.1-0.1-0.3-0.1-0.4-0.2c-0.6-0.3-1.3-0.6-1.9-0.9l-0.3-0.1c-0.7-0.3-1.3-0.7-1.9-1.1l0,0
	c-1-0.6-1.9-1.3-2.8-2c-0.5-0.4-0.9-0.7-1.3-1.1c-0.2-0.2-0.5-0.4-0.7-0.6c-0.8-0.8-1.6-1.6-2.4-2.4c0.1-0.6,0.2-1.2,0.4-1.8l0,0
	c0-0.1,0.1-0.2,0.1-0.3c0-0.1,0.1-0.2,0.1-0.2c1-1.9,2.9-2.4,5.2-2.5c1.3-0.1,2.7,0,4.2,0c0.8,0,1.6,0,2.5-0.1
	c5.2-0.5,4.3-3.6,4.5-5.2c0.2-1.6,1.7-0.2,1.8-0.1l0,0c3,1.4,6.2,2,9.5,1.7c0.6-0.1,1.1-0.1,1.7-0.1c1.5,0,1.2,0.4,0.6,0.8
	c-0.2,0.2-0.5,0.3-0.8,0.4c0,0-0.2,1.4-0.5,3.6c-0.2,2,3.7,3,4,3.1c0,0,0,0,0,0c1.4-0.4,2.9-0.3,4.3,0.1h0
	C415.1,286.3,416.3,287.7,416.7,289.4z"/>
<path class="st10" d="M387.6,293c0,0.4,0,0.8,0,1.2c0,0.2,0,0.5,0,0.7c0,0,0,0,0,0c-0.1-0.1-0.3-0.1-0.4-0.2
	c-0.6-0.3-1.3-0.6-1.9-0.9l-0.3-0.1c-0.7-0.3-1.3-0.7-1.9-1.1c0-0.2,0-0.4,0.1-0.6c0.1-0.4,0.1-0.9,0.1-1.3c0.2-3.1-0.3-6.2-1.6-9v0
	c-0.1-0.2-0.2-0.4-0.2-0.4s1.7-1.4,4,0c0.2,0.1,0.3,0.2,0.4,0.3C387.2,283.3,387.6,289,387.6,293z"/>
<path id="a05c59bd-0311-408b-a800-ed606f18fbbf-4456" class="st10" d="M392.9,254.6v9h2.1l2.7-2.8l-0.4,2.8h9.2l-0.6-2.8l1.1,2.8
	h1.5v-9H392.9z"/>
<ellipse id="af122121-1c1b-4817-a566-2298b147ce18" class="st11" cx="391.5" cy="264" rx="0.7" ry="1.3"/>
<path class="st7" d="M429.1,256.3c-5.8-16.6-23.9-25.3-40.5-19.6c-16.6,5.8-25.3,23.9-19.6,40.5c1.2,3.4,2.9,6.5,5.1,9.3
	c0.3,0.4,0.6,0.7,0.9,1.1c0,0,0,0,0.1,0.1c0.7,0.9,1.5,1.7,2.4,2.4c0.2,0.2,0.4,0.4,0.7,0.6c0.4,0.4,0.9,0.8,1.3,1.1
	c0.9,0.7,1.8,1.4,2.8,2l0,0c0.6,0.4,1.3,0.8,1.9,1.1l0.3,0.1c0.6,0.3,1.2,0.6,1.9,0.9c0.1,0.1,0.3,0.1,0.4,0.2c0,0,0,0,0,0
	c1.3,0.5,2.6,1,4,1.4c2.7,0.7,5.4,1.1,8.2,1.1c1,0,2,0,3-0.1c2.3-0.2,4.5-0.7,6.6-1.3c0,0,0,0,0,0c1.4-0.4,2.7-1,4-1.6c0,0,0,0,0,0
	c0.3-0.1,0.6-0.3,0.9-0.4l0.1-0.1c0.2-0.1,0.5-0.2,0.7-0.4c0.6-0.3,1.1-0.6,1.7-1c0.2-0.1,0.3-0.2,0.5-0.3c0.5-0.3,1-0.7,1.5-1
	c0.1-0.1,0.2-0.1,0.3-0.2C429.3,283.7,433.7,269.2,429.1,256.3L429.1,256.3z M417.3,290.6c-0.2,0.1-0.4,0.3-0.6,0.4
	c-0.2,0.1-0.4,0.3-0.6,0.4c-0.2,0.1-0.3,0.2-0.5,0.3c-0.1,0.1-0.3,0.2-0.4,0.3c-0.5,0.3-1,0.6-1.4,0.9c-0.1,0-0.1,0.1-0.2,0.1
	c-0.2,0.1-0.4,0.2-0.6,0.3c0,0-0.1,0-0.1,0l0,0c-0.3,0.1-0.6,0.3-0.8,0.4c-1.1,0.5-2.2,1-3.3,1.3c-0.1,0.1-0.3,0.1-0.4,0.1
	c-2,0.6-4.2,1.1-6.3,1.3c-0.9,0.1-1.9,0.1-2.8,0.1c-2.6,0-5.2-0.3-7.8-1c-1.3-0.3-2.6-0.8-3.8-1.3c-0.1-0.1-0.3-0.1-0.4-0.2
	c-0.1,0-0.1-0.1-0.2-0.1c-0.5-0.2-1.1-0.5-1.6-0.8l-0.3-0.1c-0.6-0.3-1.3-0.7-1.9-1.1c-0.2-0.1-0.4-0.3-0.7-0.4
	c-0.7-0.5-1.4-0.9-2-1.4c-0.4-0.3-0.9-0.7-1.3-1c-0.2-0.2-0.4-0.4-0.6-0.6c-0.8-0.7-1.6-1.5-2.3-2.4c-0.2-0.3-0.5-0.5-0.7-0.8
	c-0.1-0.1-0.1-0.1-0.1-0.2c-10.3-13-8.1-31.9,4.9-42.2c13-10.3,31.9-8.1,42.2,4.9s8.1,31.9-4.9,42.2
	C417.6,290.4,417.5,290.5,417.3,290.6L417.3,290.6z"/>
<path class="st6" d="M566.5-120.1H257.5c-3.9,0-7-3.1-7-7s3.1-7,7-7c0,0,0,0,0,0h309.1c3.9,0,7,3.1,7,7S570.4-120.1,566.5-120.1
	C566.5-120.1,566.5-120.1,566.5-120.1z"/>
</svg>
