<?xml version="1.0" encoding="utf-8"?>
<!-- Generator: Adobe Illustrator 26.0.1, SVG Export Plug-In . SVG Version: 6.00 Build 0)  -->
<svg version="1.1" id="Layer_1" xmlns="http://www.w3.org/2000/svg" xmlns:xlink="http://www.w3.org/1999/xlink" x="0px" y="0px"
	 viewBox="0 0 289.3 338.9" style="enable-background:new 0 0 289.3 338.9;" xml:space="preserve">
<style type="text/css">
	.st0{fill:#D6D6E3;}
	.st1{fill:#E03854;}
	.st2{fill:#090814;}
</style>
<path class="st0" d="M81.9,7.3c25.2,1.4,127.8-1.9,138.6,0c4.6,0.8,13,7.5,14.4,12.1c3,9.8-0.7,178,0.8,205.5l-36.2,37H93.6
	l-44.8-42.4V45.8C82,47.2,82.1,36.8,81.9,7.3L81.9,7.3z"/>
<path class="st1" d="M91.3,265.7h109l75.1,72l-259.6,1.2C39.2,313,65.3,289.3,91.3,265.7L91.3,265.7z"/>
<path class="st1" d="M1,181.7l86.8,79.8l-77.5,75.1c-3.9,0.8-9.2-7.5-9.7-10.5C-1.1,317,1.5,206.1,1,181.7L1,181.7z"/>
<path class="st1" d="M286.7,183.2c1.1,0,1.3,0.5,1.9,1.2c-1.5,26.2,2,127,0,139.4c-0.5,3-5.4,12.4-9,12.1
	c-5.1-0.5-64.2-64.3-74.3-71.2v-2.3L286.7,183.2L286.7,183.2z"/>
<polygon class="st1" points="240.7,180.1 283.9,180.5 240,222.1 "/>
<polygon class="st1" points="240,139.6 287.1,175 240.7,176.2 "/>
<path class="st1" d="M42.2,141.2c0.8,0,1.6-0.2,1.9,0.4L43,177l-41.7-1.2l0.4-1.9C7.8,171.3,39.6,141.2,42.2,141.2z"/>
<path class="st1" d="M8,180.9h35l1.2,32.3l-1.2,1.2C31.3,203.3,18.5,193.1,8,180.9L8,180.9z"/>
<rect x="112.7" y="64.1" class="st2" width="67" height="4.6"/>
<rect x="75.3" y="157.5" class="st2" width="134.7" height="4.6"/>
<rect x="75.3" y="126.4" class="st2" width="134.7" height="4.6"/>
<rect x="75.3" y="95.3" class="st2" width="134.7" height="4.6"/>
</svg>
