<?xml version="1.0" encoding="utf-8"?>
<!-- Generator: Adobe Illustrator 26.0.1, SVG Export Plug-In . SVG Version: 6.00 Build 0)  -->
<svg version="1.1" id="Layer_1" xmlns="http://www.w3.org/2000/svg" xmlns:xlink="http://www.w3.org/1999/xlink" x="0px" y="0px"
	 viewBox="0 0 312 312" style="enable-background:new 0 0 312 312;" xml:space="preserve">
<style type="text/css">
	.st0{fill:#BDDDEF;}
	.st1{fill:#151616;}
	.st2{fill:#142A35;}
	.st3{fill:#FFFFFF;}
	.st4{fill:#E83E5B;}
	.st5{fill:#151616;stroke:#000000;stroke-width:4;stroke-miterlimit:10;}
	.st6{fill:#142A35;stroke:#000000;stroke-width:4;stroke-miterlimit:10;}
	.st7{opacity:0.3;}
	.st8{fill:#231F20;}
</style>
<path class="st1" d="M32.79,209.46c-2.32,0.97-4.68,0.6-7.04-1.32c-2.35-1.92-4.08-5.02-4.97-9.24
	c-2.77-13.21-3.48-20.29-3.16-35.23c2.02-0.06,3.04-0.09,5.06-0.14c-0.24,11.87,0.2,17.53,2.01,28.27c0.3,1.8,0.84,3.21,1.57,4.24
	c0.86,1.22,1.79,1.67,2.78,1.36c2.3-0.71,2.82-3.57,1.99-8.85c-0.81-5.18-1.1-7.83-1.42-13.29c-0.23-3.89,0.46-7.48,1.97-10.53
	c1.51-3.06,3.47-4.54,5.74-4.54c2.5-0.01,4.45,1.39,5.98,3.97c1.53,2.58,2.34,5.87,2.61,9.95c0.72,10.77,1.67,15.86,4.5,25.34
	c-1.84,0.72-2.75,1.08-4.59,1.81c-2.61-8.75-3.53-13.4-4.44-23.2c-0.1-1.11-0.51-2.18-1.21-3.24c-0.71-1.05-1.47-1.55-2.31-1.45
	c-0.96,0.11-1.74,0.78-2.32,2.01c-0.58,1.23-0.81,2.67-0.65,4.29c0.55,5.65,0.96,8.4,2.06,13.73c0.85,4.15,1,7.52,0.28,10.34
	C36.52,206.57,35.08,208.5,32.79,209.46z"/>
<path class="st1" d="M41.69,247.66c-5.25-7.52-7.6-11.58-11.56-20.25c-1.11-2.44-1.48-4.85-1.12-7.12c0.36-2.27,1.4-3.77,3.02-4.54
	c1.68-0.79,3.36-0.67,5.05,0.26c1.69,0.93,2.98,2.46,3.95,4.61c2.3,5.11,3.59,7.57,6.41,12.25c0.37-0.26,0.56-0.4,0.94-0.66
	c0.31-0.22,0.54-0.47,0.67-0.76c0.14-0.29,0.26-0.7,0.34-1.23c0.11-0.68,0.08-1.31-0.09-1.86c-0.17-0.56-0.49-1.26-0.95-2.11
	c-2.72-5.01-3.95-7.64-6.09-13.12c1.69-0.83,2.54-1.24,4.23-2.07c1.76,4.52,2.75,6.7,4.93,10.89c0.42,0.81,0.64,1.22,1.08,2.02
	c1.23,2.25,2.06,3.96,2.44,5.24c0.37,1.27,0.58,2.53,0.52,3.68c-0.07,1.5-0.47,2.81-1.1,3.82c-0.63,1.01-1.6,2.06-2.94,3.13
	C47.53,242.96,45.58,244.53,41.69,247.66z M40.52,237.68c1.4-0.99,2.1-1.48,3.5-2.47c-2.11-3.51-3.1-5.33-4.93-9.08
	c-0.44-0.9-0.98-1.56-1.62-1.99c-0.65-0.43-1.26-0.49-1.85-0.16c-0.51,0.28-0.79,0.83-0.83,1.64c-0.04,0.81,0.14,1.63,0.53,2.44
	C37.25,232.04,38.29,233.96,40.52,237.68z"/>
<path class="st1" d="M65.59,273.31c-4.88-3.97-7.22-6.12-11.62-10.73c-2.04-2.13-3.33-3.79-3.96-4.81
	c-1.07-1.76-1.59-3.51-1.48-5.18c0.12-1.92,0.85-3.42,2.09-4.52c4.49-3.95,6.73-5.92,11.22-9.86c1.75,2.26,2.66,3.35,4.54,5.47
	c-4.13,4.1-6.2,6.14-10.33,10.24c-0.49,0.48-0.64,1.21-0.45,2.2c0.19,0.99,0.63,1.84,1.3,2.55c2.17,2.29,3.28,3.39,5.58,5.52
	c4.45-5.25,6.67-7.87,11.12-13.12c2.05,1.9,3.11,2.82,5.27,4.58C73.56,262.72,70.9,266.25,65.59,273.31z"/>
<path class="st1" d="M96.68,291.95c-7.03-2.95-10.45-4.69-16.99-8.68c-3.14-1.91-5.07-4.68-5.67-8.05c-0.55-3.1,0.13-5.89,1.85-8.34
	c1.65-2.36,4-3.7,6.95-4.22c2.95-0.52,5.69,0.04,8.41,1.68c3.05,1.83,4.61,2.69,7.78,4.26c1.35-2.82,2.02-4.23,3.36-7.05
	c2.25,1.12,3.4,1.64,5.72,2.61C103.52,275.27,101.24,280.83,96.68,291.95z M91.36,284.2c2.19-4.58,3.29-6.86,5.48-11.44
	c-2.39-1.19-3.56-1.82-5.88-3.14c-1.6-0.92-3.21-1.18-4.88-0.78c-1.67,0.4-2.97,1.29-3.85,2.72c-0.88,1.43-1.18,3.03-0.83,4.79
	c0.34,1.76,1.41,3.19,3.17,4.2C87.24,282.1,88.6,282.83,91.36,284.2z"/>
<path class="st1" d="M116.97,272.94c-2.56-0.76-3.83-1.18-6.33-2.1c0.72-1.99,1.08-2.98,1.8-4.97c2.39,0.88,3.61,1.28,6.05,2.01
	C117.88,269.9,117.58,270.91,116.97,272.94z M109.97,296.69c-3.14-0.93-4.7-1.45-7.78-2.58c3.03-8.36,4.55-12.54,7.58-20.9
	c2.6,0.95,3.92,1.39,6.57,2.17C113.79,283.91,112.52,288.17,109.97,296.69z"/>
<path class="st0" d="M190.22,161.17c0,11.42-8.07,21.44-18.94,24.2h-0.01c-1.94,0.5-3.95,0.76-6.04,0.76c-5.84,0-11.15-1.88-15.4-5
	c-6.29-4.61-10.27-11.94-10.27-19.96c0-4.16,0.98-8.05,2.75-11.46c0.16-0.32,0.32-0.63,0.51-0.94c0.01-0.01,0.01-0.02,0.01-0.04
	c0-0.01,0-0.01,0.01-0.02c0.43-0.75,0.89-1.45,1.39-2.14c0.6-0.82,1.24-1.6,1.94-2.35c4.18-4.46,10.05-7.38,16.78-7.92
	c0.75-0.07,1.5-0.1,2.27-0.1c0.53,0,1.07,0.01,1.59,0.06c6.62,0.39,12.55,3.32,16.78,7.87c0.7,0.75,1.34,1.53,1.94,2.36
	c0.53,0.73,1.03,1.49,1.47,2.3v0.01c0.17,0.27,0.32,0.55,0.47,0.85c0,0.01,0,0.01,0,0.02c0.88,1.7,1.57,3.52,2.03,5.43v0.01
	C189.97,157.04,190.22,159.07,190.22,161.17z"/>
<path class="st1" d="M163.71,197.84c-3.84,0-7.61-0.74-11.19-2.22c-7.2-2.57-13.02-7.89-16.13-14.88
	c-3.16-7.1-3.17-15.03-0.01-22.35c5.45-14.37,23.15-21.85,38.23-15.69c7.22,2.57,13.04,7.89,16.15,14.88
	c3.16,7.1,3.17,15.03,0.01,22.35C186.49,190.59,175.6,197.84,163.71,197.84z M163.09,151.3c-7.35,0-13.75,4.35-16.31,11.1
	c-2.06,4.77-2.08,9.67-0.13,14.02c1.88,4.22,5.43,7.45,9.98,9.1c10.12,4.06,20.26-0.9,23.79-9.67c2.02-4.68,2.03-9.58,0.09-13.93
	c-1.89-4.22-5.44-7.45-9.98-9.1C167.96,151.78,165.53,151.3,163.09,151.3z"/>
<path class="st1" d="M144.23,34.77c0.65-0.05,1.29-0.1,1.94-0.14v10.99c-0.66,0.04-1.31,0.1-1.94,0.16
	c-0.65,0.05-1.29,0.11-1.93,0.17V34.94C142.95,34.88,143.58,34.82,144.23,34.77z"/>
<path class="st1" d="M166.81,43.91v1.84c-1.29-0.11-2.57-0.2-3.87-0.26v-1.58c0-0.35,0.16-0.66,0.43-0.89
	c0.36-0.34,0.89-0.53,1.49-0.53c0.75,0,1.39,0.31,1.7,0.76C166.73,43.43,166.81,43.66,166.81,43.91z"/>
<path class="st1" d="M187.47,38.09v11.25c-0.63-0.17-1.29-0.34-1.94-0.5c-0.65-0.16-1.29-0.32-1.94-0.47V37.21
	c0.65,0.14,1.29,0.27,1.94,0.42C186.18,37.78,186.82,37.93,187.47,38.09z"/>
<path d="M142.3,28.69v23.54c-47.92,5.22-88.47,38.24-100.35,85.48c-0.14,0.51-0.53,1.63-0.61,1.86l-0.24,0.63
	c-0.07,0.17-0.12,0.31-0.16,0.41c-0.09,2.81-1.26,5.47-3.32,7.54c-2.25,2.26-5.38,3.55-8.59,3.55c-6.59,0-11.94-5.24-11.94-11.7
	c0-3.58,0.99-6.3,1.63-7.98C33.39,74.11,83.5,33.93,142.3,28.69z"/>
<path d="M144.23,28.53c-0.65,0.04-1.28,0.09-1.93,0.16v5c0.65-0.07,1.28-0.12,1.93-0.17c0.65-0.06,1.29-0.1,1.94-0.14V28.4
	C145.52,28.43,144.88,28.47,144.23,28.53z M185.53,31.23c-0.65-0.15-1.29-0.29-1.94-0.4v5.06c0.65,0.14,1.29,0.29,1.94,0.44
	c0.65,0.14,1.29,0.29,1.94,0.45v-5.11C186.82,31.51,186.18,31.37,185.53,31.23z M162.95,46.74v4.98c1.28,0.07,2.57,0.17,3.87,0.29
	v-5C165.52,46.9,164.23,46.81,162.95,46.74z M142.3,47.22v5.01c0.63-0.06,1.28-0.14,1.93-0.19c0.65-0.06,1.29-0.12,1.94-0.17v-4.98
	c-0.65,0.04-1.29,0.09-1.94,0.16C143.58,47.09,142.94,47.15,142.3,47.22z M185.53,50.16c-0.65-0.17-1.29-0.32-1.94-0.47v5.11
	c0.65,0.15,1.3,0.32,1.94,0.5c0.66,0.16,1.31,0.34,1.94,0.51v-5.13C186.82,50.48,186.18,50.32,185.53,50.16z M196.56,276.6
	c-5.22,2.26-7.86,3.14-13.12,4.49c-0.86,0.22-1.62,0.5-2.25,0.86c5.34-1.16,10.59-2.65,15.7-4.47
	C196.79,277.2,196.68,276.92,196.56,276.6z M215.44,269.01c-0.42,0.22-0.85,0.45-1.28,0.66c-0.04,0.02-0.09,0.05-0.14,0.07
	c-0.4,0.19-0.8,0.39-1.22,0.58c-0.7,0.34-1.45,0.68-2.3,1.07c-0.92,0.42-1.76,0.92-2.55,1.5c2.77-1.29,5.48-2.72,8.12-4.23
	C215.85,268.79,215.63,268.9,215.44,269.01z M227.95,280.06c-0.21-0.36-0.39-0.66-0.55-0.94c-0.21-0.37-0.42-0.75-0.68-1.22
	c-5.99,3.64-12.27,6.85-18.79,9.56c-2,0.85-4.04,1.64-6.09,2.37c-7,2.56-14.24,4.56-21.66,5.95c-1.59,0.31-3.18,0.58-4.79,0.82
	c-6.79,1.04-13.72,1.58-20.74,1.58c-0.91,0-1.83-0.01-2.75-0.02c-1.07-0.02-2.15-0.06-3.24-0.11c-5.16-0.21-10.34-0.72-15.45-1.5
	c-1.89-0.3-3.54-1.31-4.64-2.82c-1.02-1.43-1.44-3.16-1.14-4.88c0.29-1.81,1.28-3.38,2.81-4.45c1.17-0.81,2.49-1.23,3.92-1.23
	c0.25,0,0.48,0.01,0.75,0.04c0.37-0.14,0.73-0.22,1.09-0.27c0.67-0.1,1.48-0.06,2.45,0.09c4.2,0.66,6.33,0.86,10.61,0.96
	c0.01-0.2,0.01-0.39,0.02-0.55c0.01-0.47,0.04-0.88,0.06-1.28c0.01-0.6,0.04-1.18,0.07-1.99c-4.44-0.1-6.64-0.31-10.97-1.04
	c-1.18-0.2-2.22-0.31-3.17-0.32c-0.93,0-1.94,0.09-3.05,0.29c-1.98,0.37-3.77,1.23-5.33,2.65c-1.44,1.31-2.54,2.93-3.18,4.9
	c-0.67,1.99-0.76,3.99-0.17,6c0.57,2.01,1.88,3.74,3.89,5.06c1.88,1.23,4,2.06,6.29,2.47c5.92,1.06,8.94,1.35,15,1.48
	c0.01-0.41,0.02-0.76,0.04-1.08c2.04,0.09,4.06,0.12,6.09,0.12c0,0,0,0,0.01,0c1.07,0.47,2.31,0.7,3.7,0.65
	c6.96-0.2,10.48-0.6,17.47-2.06c-0.01-0.07-0.02-0.14-0.04-0.2c1.59-0.24,3.17-0.51,4.74-0.81c0.01,0.09,0.02,0.19,0.04,0.29
	c5.78-1.08,9.01-1.9,14.21-3.74c6.91-2.06,13.63-4.64,20.08-7.71c0.42-0.14,0.85-0.31,1.27-0.5c4.8-2.16,7.2-3.42,11.97-6.25
	C228.05,280.24,227.99,280.15,227.95,280.06z"/>
<path d="M187.47,31.66V55.8c56.24,15.82,93.12,70.77,83.72,128.38c-10.68,61.82-71.23,104.07-134.94,94.18
	c-3.14-0.53-6.3,0.16-8.86,1.95c-2.65,1.84-4.37,4.59-4.87,7.73c-0.51,3.02,0.21,6.07,2.03,8.59c1.88,2.6,4.67,4.31,7.9,4.82
	c7.33,1.13,14.8,1.7,22.2,1.7c68.53,0,128.77-49.5,140.12-115.19C306.45,116.39,258.84,48.19,187.47,31.66z"/>
<path d="M164.88,42.48c-0.6,0-1.13,0.2-1.49,0.53c1.07,0.06,2.13,0.14,3.19,0.22C166.27,42.79,165.62,42.48,164.88,42.48z
	 M144.23,26.13v123.59h41.3V26.13H144.23z M183.59,144.13c-4.23-4.55-10.15-7.48-16.78-7.87V43.91c0-0.25-0.09-0.47-0.24-0.67
	c-0.31-0.45-0.96-0.76-1.7-0.76c-0.6,0-1.13,0.2-1.49,0.53c-0.27,0.24-0.43,0.55-0.43,0.89v92.39c-6.72,0.53-12.6,3.46-16.78,7.92
	V28.4c10.49-0.66,21.23-0.21,32.08,1.44c1.79,0.3,3.58,0.62,5.34,0.99V144.13z"/>
<path class="st3" d="M144.23,37.28v1.28c-0.65,0.05-1.28,0.11-1.93,0.17v3.44c0.63-0.06,1.28-0.12,1.93-0.17v1.28
	c0.65-0.06,1.29-0.11,1.94-0.15v-5.99C145.52,37.18,144.88,37.23,144.23,37.28z M187.4,25.75c0-0.01-0.01-0.02-0.01-0.02
	c-0.24-0.6-0.99-1.02-1.85-1.02h-41.3c-0.89,0-1.65,0.46-1.86,1.08c-0.04,0.11-0.06,0.22-0.06,0.35v123.58c0,0.01,0,0.01,0,0.02
	c0,0.09,0.01,0.17,0.04,0.25c0.01,0.07,0.04,0.14,0.07,0.2c0.02,0.07,0.07,0.15,0.12,0.22l0.1,0.12c0.35,0.39,0.93,0.63,1.59,0.63
	h41.3c0.39,0,0.73-0.09,1.03-0.24h0.01c0.22-0.1,0.41-0.24,0.56-0.4l0.1-0.12c0.1-0.14,0.17-0.29,0.2-0.43
	c0.02-0.07,0.04-0.15,0.04-0.24v-0.06c0-0.01,0-0.01,0-0.02V26.13C187.47,26,187.45,25.87,187.4,25.75z M183.59,148.29h-37.42V27.56
	h37.42V148.29z"/>
<path d="M183.59,30.83v113.3c-4.23-4.55-10.15-7.48-16.78-7.87V43.91c0-0.25-0.09-0.47-0.24-0.67c-0.31-0.45-0.96-0.76-1.7-0.76
	c-0.6,0-1.13,0.2-1.49,0.53c-0.27,0.24-0.43,0.55-0.43,0.89v92.39c-6.72,0.53-12.6,3.46-16.78,7.92V28.4
	c10.49-0.66,21.23-0.21,32.08,1.44C180.04,30.14,181.83,30.46,183.59,30.83z"/>
<path class="st4" d="M185.49,26.14c-0.49-8.14-9.51-14.63-20.6-14.63c-11.09,0-20.11,6.49-20.6,14.63H185.49z"/>
<path class="st3" d="M185.49,27.57h-41.21c-0.53,0-1.04-0.16-1.4-0.44c-0.36-0.29-0.56-0.67-0.54-1.06c0.55-8.97,10.45-16,22.53-16
	c12.09,0,21.99,7.03,22.54,16c0.02,0.39-0.17,0.77-0.54,1.06C186.52,27.41,186.02,27.57,185.49,27.57z M146.41,24.7h36.94
	c-1.38-6.7-9.15-11.76-18.48-11.76C155.55,12.94,147.8,18,146.41,24.7z"/>
<polygon points="164.88,177.81 144.24,149.73 185.53,149.73 "/>
<path class="st3" d="M164.88,179.25c-0.71,0-1.36-0.29-1.7-0.75l-20.65-28.08c-0.33-0.44-0.31-0.98,0.04-1.42
	c0.35-0.43,0.98-0.7,1.66-0.7h41.3c0.68,0,1.32,0.27,1.66,0.7c0.35,0.44,0.36,0.97,0.04,1.42l-20.65,28.08
	C166.24,178.96,165.59,179.25,164.88,179.25z M147.49,151.16l17.39,23.65l17.39-23.65H147.49z"/>
<polygon class="st4" points="155.83,165.5 164.88,177.81 173.94,165.5 "/>
<path class="st3" d="M164.88,179.25L164.88,179.25c-0.71,0-1.36-0.29-1.7-0.75l-9.05-12.31c-0.33-0.44-0.31-0.98,0.04-1.42
	c0.35-0.43,0.98-0.7,1.66-0.7h18.11c0.68,0,1.32,0.27,1.66,0.7c0.35,0.44,0.36,0.97,0.04,1.42l-9.06,12.31
	C166.24,178.96,165.59,179.25,164.88,179.25z M159.09,166.94l5.79,7.88l5.8-7.88H159.09z"/>
<path class="st3" d="M166.81,43.91v105.82c0,0.8-0.87,1.44-1.94,1.44c-1.06,0-1.93-0.65-1.93-1.44V43.91c0-0.35,0.16-0.66,0.43-0.89
	c0.36-0.34,0.89-0.53,1.49-0.53c0.75,0,1.39,0.31,1.7,0.76C166.73,43.43,166.81,43.66,166.81,43.91z"/>
<path class="st3" d="M138.99,280.23c-1.18-0.19-2.22-0.3-3.17-0.31c-0.93,0-1.94,0.08-3.05,0.27c-1.98,0.35-3.77,1.17-5.33,2.52
	c-1.44,1.24-2.54,2.79-3.18,4.65c-0.67,1.89-0.76,3.79-0.17,5.7c0.57,1.91,1.88,3.56,3.89,4.81c1.88,1.17,4,1.96,6.29,2.35
	c5.92,1,8.94,1.29,15,1.41c0.01-0.39,0.02-0.72,0.04-1.03c0.01-0.43,0.04-0.8,0.05-1.22c0.01-0.34,0.02-0.72,0.05-1.16v-0.12
	c-5.26-0.11-7.88-0.34-13.04-1.13c-0.97-0.15-1.79-0.44-2.45-0.84c-0.42-0.26-0.81-0.57-1.17-0.93c-0.21-0.19-0.4-0.4-0.57-0.63
	c-0.51-0.64-0.82-1.23-0.93-1.76c-0.12-0.53-0.1-1.12,0.07-1.78c0.25,0.06,0.5,0.11,0.73,0.15c0.61,0.14,1.18,0.26,1.74,0.38
	c5.64,1.16,9.28,1.54,15.82,1.67c0.05-1.23,0.07-1.93,0.12-2.99c0.01-0.19,0.01-0.39,0.02-0.6c-6.57-0.13-10.12-0.52-15.98-1.77
	c-0.53-0.11-1.08-0.22-1.65-0.35c0.19-0.73,0.47-1.32,0.83-1.75c0.05-0.06,0.11-0.13,0.19-0.19c0.35-0.35,0.85-0.7,1.48-1.02
	c0.35-0.19,0.7-0.33,1.02-0.45c0.37-0.13,0.73-0.21,1.09-0.26c0.67-0.09,1.48-0.06,2.45,0.08c4.2,0.63,6.33,0.81,10.61,0.91
	c0.01-0.19,0.01-0.37,0.02-0.52c0.01-0.45,0.04-0.84,0.06-1.22c0.01-0.57,0.04-1.12,0.07-1.89
	C145.53,281.12,143.33,280.92,138.99,280.23z"/>
<path class="st3" d="M175.49,299.05c-0.07-0.43-0.15-0.85-0.21-1.23c-0.07-0.43-0.14-0.83-0.2-1.22c-0.07-0.42-0.15-0.82-0.21-1.22
	c-0.14-0.82-0.27-1.62-0.42-2.49c-0.07-0.4-0.14-0.81-0.22-1.26c-0.09-0.51-0.17-1.04-0.27-1.64c-0.11-0.61-0.25-1.17-0.41-1.65
	c-0.14-0.45-0.3-0.85-0.5-1.19c-0.02-0.06-0.05-0.11-0.09-0.17c-0.44-0.75-1.17-1.42-2.14-1.93c-0.05-0.02-0.1-0.05-0.16-0.07
	c-0.71-0.35-1.55-0.56-2.47-0.66c-0.97-0.12-2.41-0.05-4.33,0.14c-0.68,0.07-1.02,0.1-1.7,0.15c-3.5,0.27-5.26,0.32-8.72,0.22
	c-0.02,0.45-0.04,0.83-0.06,1.18c-0.04,0.78-0.07,1.44-0.11,2.44c1.14,0.02,2.13,0.05,3.05,0.05c0.35,0,0.68,0,1.01-0.01
	c0.7-0.01,1.39-0.04,2.09-0.06h0.07c1.29-0.07,2.67-0.19,4.37-0.35c0.68-0.06,1.23-0.07,1.64-0.02h0.07
	c0.43,0.05,0.86,0.21,1.26,0.5c0.29,0.2,0.5,0.39,0.63,0.56c0.02,0.02,0.04,0.04,0.05,0.06c0.14,0.17,0.22,0.41,0.26,0.7
	c0.04,0.35,0.05,0.52,0.09,0.87c-4.11,0.57-6.18,0.73-10.27,0.83c-1.72,0.04-3.14,0.5-4.33,1.42c-0.06,0.05-0.12,0.1-0.17,0.15
	c-0.46,0.37-0.83,0.8-1.11,1.27c-0.39,0.62-0.6,1.32-0.65,2.09c-0.01,0.12-0.01,0.26-0.01,0.39c0.01,0.45,0.1,0.87,0.27,1.28
	c0.17,0.43,0.46,0.85,0.83,1.23c0.21,0.2,0.45,0.41,0.71,0.6c0.37,0.27,0.77,0.5,1.21,0.68c0,0,0,0,0.01,0
	c1.07,0.47,2.31,0.7,3.7,0.65c6.96-0.2,10.48-0.6,17.47-2.06C175.51,299.18,175.5,299.12,175.49,299.05z M168.47,297.08
	c-3.26,0.45-4.9,0.6-8.14,0.77c-0.67,0.04-1.26-0.09-1.76-0.36c-0.32-0.17-0.53-0.39-0.65-0.62c-0.07-0.14-0.11-0.3-0.11-0.46
	c0-0.51,0.26-0.93,0.76-1.26c0.51-0.32,1.13-0.51,1.86-0.55c3.08-0.17,4.62-0.32,7.71-0.75c0.1,0.96,0.16,1.55,0.25,2.34
	C168.4,296.46,168.43,296.76,168.47,297.08z"/>
<path class="st3" d="M199.14,287.79c-0.08-0.23-0.18-0.44-0.31-0.65c-0.22-0.42-0.53-0.77-0.9-1.06c-0.48-0.38-1.08-0.66-1.78-0.84
	c-1.5-0.39-3.3-0.22-5.43,0.46c-2.69,0.84-4.03,1.2-6.72,1.83c-0.67,0.16-1.27,0.11-1.8-0.14c-0.3-0.14-0.53-0.32-0.68-0.55
	c-0.12-0.15-0.2-0.34-0.22-0.54c-0.04-0.24-0.02-0.47,0.06-0.69c0.06-0.2,0.15-0.38,0.3-0.57c0.29-0.41,0.68-0.67,1.14-0.78
	c4.91-1.1,7.38-1.84,12.28-3.71c-0.1-0.29-0.19-0.56-0.25-0.79c-0.15-0.43-0.28-0.8-0.42-1.23c-0.08-0.26-0.17-0.56-0.28-0.88
	c-5.32,2.03-7.99,2.79-13.31,3.9c-0.87,0.19-1.64,0.42-2.29,0.76c-0.83,0.4-1.48,0.93-1.97,1.59c0,0.01-0.01,0.01-0.01,0.02
	c-0.54,0.75-0.87,1.64-0.94,2.65c-0.03,0.37-0.03,0.77,0.01,1.18c0,0.02,0.01,0.04,0.01,0.06c0.12,1.04,0.82,1.93,2.16,2.63
	c0.23,0.12,0.45,0.23,0.67,0.32c0.01,0.01,0.01,0,0.01,0c1.15,0.47,2.3,0.59,3.46,0.35c2.59-0.52,3.88-0.82,6.46-1.54
	c1.49-0.41,2.6-0.53,3.35-0.32c0.58,0.17,0.95,0.53,1.1,1.09c0.14,0.48,0.02,0.93-0.37,1.38c-0.05,0.08-0.13,0.16-0.22,0.24
	c-0.55,0.51-1.28,0.9-2.2,1.16c-5.25,1.51-7.89,2.05-13.14,2.8c0.01,0.06,0.01,0.11,0.02,0.17c0.05,0.48,0.09,0.86,0.12,1.24
	c0.05,0.39,0.09,0.76,0.13,1.24c0.01,0.09,0.02,0.19,0.02,0.29c5.82-0.82,9.09-1.5,14.36-3.11c0.67-0.21,1.36-0.42,2.09-0.65
	c1.59-0.5,2.88-1.27,3.86-2.22c0.31-0.3,0.59-0.62,0.83-0.96c0.2-0.26,0.36-0.54,0.5-0.81c0.24-0.46,0.4-0.92,0.48-1.37
	C199.41,289.06,199.36,288.43,199.14,287.79z"/>
<path class="st3" d="M224.47,280.94c-0.22-0.37-0.39-0.67-0.56-0.97c-0.22-0.38-0.43-0.76-0.7-1.25c-0.04-0.05-0.06-0.1-0.1-0.17
	c-3.41,2.02-5.12,2.95-8.54,4.63c-1.11,0.53-2.06,0.92-2.89,1.16c-0.64,0.19-1.23,0.28-1.8,0.25c-0.15,0.01-0.31,0-0.45-0.03
	c-0.66-0.09-1.16-0.25-1.46-0.5c-0.31-0.25-0.55-0.61-0.73-1.09c5.69-2.38,8.54-3.81,14.18-7.16c-0.08-0.14-0.15-0.28-0.23-0.41
	c-0.25-0.43-0.46-0.8-0.66-1.16c-0.24-0.42-0.48-0.85-0.8-1.41c-5.46,3.25-8.23,4.62-13.74,6.91c-0.17-0.45-0.2-0.9-0.13-1.36
	c0.1-0.57,0.37-1.15,0.83-1.73c0.04-0.05,0.08-0.1,0.11-0.14c0.42-0.5,0.9-0.94,1.46-1.3c0.61-0.41,1.4-0.84,2.36-1.31
	c3-1.48,4.49-2.29,7.47-4.06c-0.41-0.73-0.7-1.24-1.01-1.78c-0.2-0.34-0.41-0.71-0.66-1.17c-0.24,0.14-0.48,0.28-0.71,0.42
	c-3.46,2.04-5.42,3.06-9.13,4.74c-0.94,0.43-1.81,0.94-2.61,1.54c-1.02,0.75-1.92,1.64-2.71,2.69c-0.25,0.32-0.5,0.65-0.73,0.99
	c-0.57,0.89-1.02,1.76-1.31,2.61c-0.18,0.51-0.31,1.02-0.36,1.52c-0.13,0.93-0.08,1.83,0.18,2.74c0.06,0.23,0.14,0.46,0.24,0.67
	c0.17,0.41,0.38,0.8,0.66,1.16c0.55,0.79,1.34,1.44,2.38,1.94c0.45,0.22,0.93,0.41,1.45,0.56c0.05,0.01,0.11,0.03,0.17,0.04
	c0.84,0.24,1.72,0.36,2.62,0.37c1.44,0.04,2.94-0.2,4.48-0.75c0.43-0.14,0.87-0.32,1.3-0.51c4.91-2.22,7.37-3.5,12.26-6.4
	C224.57,281.12,224.5,281.03,224.47,280.94z"/>
</svg>
