<?xml version="1.0" encoding="UTF-8"?>
<svg id="Layer_1" xmlns="http://www.w3.org/2000/svg" version="1.1" viewBox="0 0 119.1 119.1">
  <!-- Generator: Adobe Illustrator 29.0.1, SVG Export Plug-In . SVG Version: 2.1.0 Build 192)  -->
  <defs>
    <style>
      .st0 {
        stroke-linejoin: round;
      }

      .st0, .st1, .st2, .st3, .st4, .st5, .st6, .st7 {
        fill: none;
      }

      .st0, .st2 {
        stroke-linecap: round;
      }

      .st0, .st2, .st3, .st4, .st6 {
        stroke: #02594f;
        stroke-width: 3px;
      }

      .st1 {
        opacity: .8;
      }

      .st1, .st2, .st3, .st4, .st5, .st6, .st7 {
        stroke-miterlimit: 10;
      }

      .st1, .st5 {
        isolation: isolate;
      }

      .st1, .st5, .st7 {
        stroke: #355b4d;
        stroke-width: .5px;
      }

      .st4 {
        stroke-dasharray: 5.2 0 0 5.2 0 0;
      }

      .st5 {
        opacity: .4;
      }

      .st8 {
        display: none;
      }

      .st6 {
        stroke-dasharray: 0 5.2 0 0;
      }
    </style>
  </defs>
  <g id="Layer_11" data-name="Layer_1" class="st8">
    <rect class="st7" x="14.2" y="14.2" width="90.7" height="90.7"/>
    <rect class="st5" x="13.8" y="14.6" width="90.7" height="90.7" rx="45.3" ry="45.3"/>
    <path class="st5" d="M59.1.4h0c32.9,0,59.5,26.7,59.5,59.5h0c0,32.9-26.7,59.5-59.5,59.5h0C26.3,119.5-.4,92.8-.4,59.9H-.4C-.4,27.1,26.3.4,59.1.4Z"/>
    <line class="st1" x1="-23.9" y1="-23.9" x2="145" y2="145"/>
    <line class="st1" x1="143" y1="-23.9" x2="-25.9" y2="145"/>
  </g>
  <g id="Layer_2">
    <path class="st2" d="M29.9,37.5c0-5.3,4.3-9.7,9.7-9.7s9.7,4.3,9.7,9.7-9.7,16.8-9.7,16.8c0,0-9.7-11.5-9.7-16.8Z"/>
    <circle class="st2" cx="39.6" cy="36.8" r="4.1"/>
    <polyline class="st0" points="50.7 41.1 52.8 41 69.2 30 87.2 29 100.5 67.2 83.7 67.8 66.2 79.2 46.7 80.8 31.9 91.2 18.5 52.9 29.9 45"/>
    <line class="st2" x1="52.8" y1="41" x2="66.2" y2="79.2"/>
    <path class="st3" d="M24.5,70.6c.3.5.9,1.1,1.8,1.7"/>
    <path class="st6" d="M26.2,72.2c1,.7,2.2,1.3,3.7,1.8"/>
    <path class="st4" d="M30.9,74.4c7.2,2.2,19,1.6,28.9-13.3,15-22.6,25.4-21.6,29.6-19.7"/>
    <path class="st3" d="M89.4,41.4c1.4.6,2.1,1.3,2.1,1.3"/>
  </g>
</svg>