<svg width="400" height="400" viewBox="0 0 400 400" fill="none" xmlns="http://www.w3.org/2000/svg">
<g clip-path="url(#clip0_270_107731)">
<mask id="mask0_270_107731" style="mask-type:alpha" maskUnits="userSpaceOnUse" x="52" y="18" width="332" height="331">
<circle cx="218.333" cy="183.5" r="165.5" fill="#F56F46"/>
</mask>
<g mask="url(#mask0_270_107731)">
<circle cx="218.333" cy="183.5" r="165.5" fill="#F56F46"/>
<path fill-rule="evenodd" clip-rule="evenodd" d="M380.692 -97.8159C358.306 -97.8159 337.32 -110.897 327.059 -131.454L309.337 -171.165H133.515L115.793 -131.454C105.533 -110.897 84.5462 -97.8159 62.1603 -97.8159H52.8329L127.919 475.43C131.65 486.175 138.645 486.175 142.843 475.43L217.462 292.29L282.288 474.963C286.019 485.708 293.014 485.708 297.212 474.963L383.957 -97.3488L380.692 -97.8159Z" fill="url(#paint0_linear_270_107731)"/>
<path fill-rule="evenodd" clip-rule="evenodd" d="M302.332 -187.048H140.968L116.25 -131.452C107.855 -114.633 91.5323 -102.486 73.8102 -99.2156L130.708 254.45C134.438 260.99 141.434 260.99 145.631 254.45L218.385 143.725L285.077 253.982C289.274 260.523 295.803 260.523 300 253.982L364.36 -100.15C348.503 -104.822 334.512 -116.035 327.05 -131.452L302.332 -187.048Z" fill="url(#paint1_linear_270_107731)"/>
<path fill-rule="evenodd" clip-rule="evenodd" d="M327.062 -131.453L221.196 -368.32L115.796 -131.453C112.065 -124.445 107.401 -118.372 101.805 -113.233L145.643 121.766C147.975 125.036 154.038 125.97 158.236 121.766L216.998 43.7443L275.761 121.298C279.492 125.97 286.021 125.036 288.353 121.298L336.856 -116.503C333.125 -121.175 329.86 -125.847 327.062 -131.453Z" fill="url(#paint2_linear_270_107731)"/>
<g filter="url(#filter0_d_270_107731)">
<rect x="83.9983" y="92.1666" width="270" height="298" rx="16" fill="white"/>
<circle cx="218.998" cy="161.667" r="37.249" fill="#E6F9EF"/>
<path d="M208.719 149.936C210.533 149.936 212.042 150.309 213.247 151.056C214.453 151.802 215.359 152.842 215.967 154.176C216.575 155.498 216.879 157.034 216.879 158.784C216.879 160.906 216.607 162.789 216.063 164.432C215.53 166.064 214.709 167.477 213.599 168.672C212.501 169.866 211.098 170.874 209.391 171.696C207.695 172.506 205.685 173.152 203.359 173.632L202.319 170.08C204.218 169.6 205.818 169.013 207.119 168.32C208.421 167.616 209.445 166.768 210.191 165.776C210.938 164.773 211.429 163.589 211.663 162.224V160.512C211.685 158.944 211.626 157.642 211.487 156.608C211.359 155.573 211.077 154.805 210.639 154.304C210.213 153.792 209.562 153.536 208.687 153.536C207.781 153.536 207.061 153.877 206.527 154.56C205.994 155.242 205.727 156.309 205.727 157.76C205.727 159.125 205.994 160.085 206.527 160.64C207.071 161.194 207.722 161.472 208.479 161.472C209.215 161.472 209.882 161.312 210.479 160.992C211.077 160.672 211.679 160.208 212.287 159.6L212.223 162.448C211.445 163.248 210.639 163.877 209.807 164.336C208.986 164.784 208.021 165.008 206.911 165.008C205.749 165.008 204.693 164.714 203.743 164.128C202.794 163.541 202.037 162.714 201.471 161.648C200.917 160.581 200.639 159.333 200.639 157.904C200.639 156.304 200.991 154.906 201.695 153.712C202.41 152.517 203.375 151.589 204.591 150.928C205.818 150.266 207.194 149.936 208.719 149.936ZM234.915 150.496L234.355 154.112H226.243V158.896C226.787 158.64 227.347 158.458 227.923 158.352C228.499 158.245 229.032 158.192 229.523 158.192C230.664 158.192 231.704 158.48 232.643 159.056C233.592 159.632 234.344 160.458 234.899 161.536C235.464 162.613 235.747 163.898 235.747 165.392C235.747 166.885 235.379 168.224 234.643 169.408C233.918 170.592 232.904 171.525 231.603 172.208C230.302 172.88 228.782 173.216 227.043 173.216C225.432 173.216 224.008 172.917 222.771 172.32C221.534 171.712 220.504 170.906 219.683 169.904L222.595 167.248C223.128 167.93 223.742 168.453 224.435 168.816C225.139 169.168 225.875 169.344 226.643 169.344C227.816 169.344 228.755 168.986 229.459 168.272C230.174 167.557 230.531 166.624 230.531 165.472C230.531 164.554 230.403 163.818 230.147 163.264C229.902 162.709 229.555 162.309 229.107 162.064C228.659 161.808 228.136 161.68 227.539 161.68C227.134 161.68 226.702 161.733 226.243 161.84C225.784 161.946 225.31 162.138 224.819 162.416H221.411V150.496H234.915Z" fill="#41C45E"/>
<path d="M218.998 124.418C239.57 124.418 256.247 141.094 256.247 161.667C256.247 182.239 239.57 198.916 218.998 198.916C198.426 198.916 181.749 182.239 181.749 161.667C181.749 150.024 187.091 139.629 195.457 132.799" stroke="#41C45E" stroke-width="5" stroke-linecap="round"/>
<rect x="218.498" y="227.916" width="18" height="3" rx="1.5" fill="#D0D3D8"/>
<rect x="204.498" y="222.916" width="8" height="8" fill="#FF8744"/>
<rect x="174.498" y="227.916" width="18" height="3" rx="1.5" fill="#D0D3D8"/>
<path d="M164.998 222.916L169.761 231.166H160.235L164.998 222.916Z" fill="#FF444F"/>
<rect x="260.498" y="227.916" width="18" height="3" rx="1.5" fill="#D0D3D8"/>
<circle cx="252.498" cy="226.916" r="4" fill="#41C45E"/>
<rect x="115.998" y="265.916" width="206" height="92" rx="8" fill="#F5F7FA"/>
<rect x="131.998" y="281.916" width="70" height="2" rx="1" fill="#172153"/>
<rect x="131.998" y="291.916" width="154" height="2" rx="1" fill="#D0D3D8"/>
<rect x="293.998" y="281.916" width="12" height="12" rx="6" fill="#41C45E"/>
<path d="M301.746 285.861L299.178 288.429L298.241 287.482C298.192 287.443 298.114 287.443 298.075 287.482L297.791 287.765C297.752 287.804 297.752 287.882 297.791 287.931L299.1 289.23C299.149 289.279 299.217 289.279 299.266 289.23L302.196 286.3C302.235 286.261 302.235 286.183 302.196 286.134L301.912 285.861C301.873 285.812 301.795 285.812 301.746 285.861Z" fill="white"/>
<rect x="131.998" y="305.916" width="44" height="2" rx="1" fill="#172153"/>
<rect x="131.998" y="315.916" width="147" height="2" rx="1" fill="#D0D3D8"/>
<rect x="293.998" y="305.916" width="12" height="12" rx="6" fill="#41C45E"/>
<path d="M301.746 309.861L299.178 312.429L298.241 311.482C298.192 311.443 298.114 311.443 298.075 311.482L297.791 311.765C297.752 311.804 297.752 311.882 297.791 311.931L299.1 313.23C299.149 313.279 299.217 313.279 299.266 313.23L302.196 310.3C302.235 310.261 302.235 310.183 302.196 310.134L301.912 309.861C301.873 309.812 301.795 309.812 301.746 309.861Z" fill="white"/>
<rect x="131.998" y="329.916" width="84" height="2" rx="1" fill="#172153"/>
<rect x="131.998" y="339.916" width="117" height="2" rx="1" fill="#D0D3D8"/>
<rect x="293.998" y="329.916" width="12" height="12" rx="6" fill="#FF8744"/>
<path d="M300.717 337.259C300.717 336.83 300.366 336.478 299.936 336.478C299.496 336.478 299.155 336.83 299.155 337.259C299.155 337.699 299.496 338.041 299.936 338.041C300.366 338.041 300.717 337.699 300.717 337.259ZM299.242 333.294L299.369 335.951C299.379 336.068 299.487 336.166 299.604 336.166H300.258C300.375 336.166 300.483 336.068 300.492 335.951L300.619 333.294C300.629 333.158 300.522 333.041 300.385 333.041H299.477C299.34 333.041 299.233 333.158 299.242 333.294Z" fill="white"/>
</g>
</g>
<path d="M341.143 84.0255C341.763 81.7702 343.814 80.2073 346.153 80.2073H383.232C386.04 80.2073 387.309 83.7209 385.149 85.5152L327.587 133.322L341.143 84.0255Z" fill="#FFD147"/>
<path d="M342.529 45.5699C342.942 44.3521 344.085 43.5327 345.371 43.5327H376.315C378.369 43.5327 379.816 45.5501 379.157 47.4954L363.093 94.9042C362.68 96.1221 361.537 96.9415 360.252 96.9415H329.307C327.253 96.9415 325.806 94.924 326.465 92.9788L342.529 45.5699Z" fill="#FFD147"/>
<g filter="url(#filter1_d_270_107731)">
<rect x="6" y="201.161" width="108.712" height="181.839" rx="16" fill="white"/>
<rect x="22" y="217.161" width="77" height="48" rx="8" fill="#005BC6"/>
<path d="M33.486 226.755C34.098 226.755 34.608 226.893 35.016 227.169C35.424 227.445 35.73 227.835 35.934 228.339C36.138 228.843 36.24 229.437 36.24 230.121C36.24 230.949 36.152 231.655 35.976 232.239C35.804 232.823 35.534 233.313 35.166 233.709C34.802 234.105 34.334 234.439 33.762 234.711C33.194 234.983 32.516 235.223 31.728 235.431L31.47 234.573C32.242 234.361 32.884 234.107 33.396 233.811C33.912 233.515 34.304 233.143 34.572 232.695C34.844 232.247 34.996 231.691 35.028 231.027L35.046 230.445C35.046 229.773 34.992 229.233 34.884 228.825C34.78 228.417 34.612 228.121 34.38 227.937C34.152 227.753 33.854 227.661 33.486 227.661C32.982 227.661 32.598 227.819 32.334 228.135C32.07 228.447 31.938 228.913 31.938 229.533C31.938 230.145 32.066 230.587 32.322 230.859C32.578 231.131 32.926 231.267 33.366 231.267C33.754 231.267 34.092 231.161 34.38 230.949C34.672 230.737 34.948 230.447 35.208 230.079L35.202 230.985C34.946 231.329 34.648 231.611 34.308 231.831C33.972 232.047 33.574 232.155 33.114 232.155C32.662 232.155 32.258 232.049 31.902 231.837C31.546 231.625 31.266 231.323 31.062 230.931C30.858 230.535 30.756 230.063 30.756 229.515C30.756 228.923 30.878 228.423 31.122 228.015C31.366 227.603 31.694 227.291 32.106 227.079C32.518 226.863 32.978 226.755 33.486 226.755ZM40.4113 226.743L41.3773 227.139L39.2173 232.287H43.5853V233.193H38.0053V232.377L40.4113 226.743ZM42.5533 230.001V235.161H41.4433L41.4373 232.479L41.5933 230.001H42.5533ZM50.2886 226.659L50.9966 227.079L45.5726 235.419L44.8826 234.999L50.2886 226.659ZM49.6586 232.143C49.4306 232.143 49.2426 232.237 49.0946 232.425C48.9466 232.609 48.8726 232.903 48.8726 233.307C48.8726 233.679 48.9446 233.969 49.0886 234.177C49.2326 234.385 49.4226 234.489 49.6586 234.489C49.8906 234.489 50.0766 234.393 50.2166 234.201C50.3606 234.009 50.4326 233.711 50.4326 233.307C50.4326 232.895 50.3606 232.599 50.2166 232.419C50.0766 232.235 49.8906 232.143 49.6586 232.143ZM46.3466 227.499C46.1186 227.499 45.9306 227.595 45.7826 227.787C45.6346 227.979 45.5606 228.269 45.5606 228.657C45.5606 229.033 45.6326 229.325 45.7766 229.533C45.9206 229.741 46.1106 229.845 46.3466 229.845C46.5786 229.845 46.7646 229.749 46.9046 229.557C47.0486 229.365 47.1206 229.065 47.1206 228.657C47.1206 228.245 47.0486 227.949 46.9046 227.769C46.7646 227.589 46.5786 227.499 46.3466 227.499ZM46.3466 226.743C46.7186 226.743 47.0326 226.831 47.2886 227.007C47.5486 227.179 47.7466 227.411 47.8826 227.703C48.0226 227.991 48.0926 228.309 48.0926 228.657C48.0926 229.001 48.0226 229.321 47.8826 229.617C47.7466 229.909 47.5486 230.145 47.2886 230.325C47.0326 230.501 46.7186 230.589 46.3466 230.589C45.9746 230.589 45.6566 230.501 45.3926 230.325C45.1286 230.145 44.9266 229.909 44.7866 229.617C44.6506 229.321 44.5826 229.001 44.5826 228.657C44.5826 228.309 44.6506 227.991 44.7866 227.703C44.9266 227.411 45.1286 227.179 45.3926 227.007C45.6566 226.831 45.9746 226.743 46.3466 226.743ZM49.6586 231.387C50.0306 231.387 50.3446 231.475 50.6006 231.651C50.8606 231.823 51.0586 232.055 51.1946 232.347C51.3346 232.635 51.4046 232.955 51.4046 233.307C51.4046 233.651 51.3346 233.969 51.1946 234.261C51.0586 234.553 50.8606 234.789 50.6006 234.969C50.3446 235.145 50.0306 235.233 49.6586 235.233C49.2866 235.233 48.9686 235.145 48.7046 234.969C48.4406 234.789 48.2386 234.553 48.0986 234.261C47.9626 233.969 47.8946 233.651 47.8946 233.307C47.8946 232.955 47.9626 232.635 48.0986 232.347C48.2386 232.055 48.4406 231.823 48.7046 231.651C48.9686 231.475 49.2866 231.387 49.6586 231.387Z" fill="white"/>
<rect x="30" y="245.161" width="61" height="2" rx="1" fill="white"/>
<rect x="30" y="255.161" width="46" height="2" rx="1" fill="#F7F6F9"/>
<rect x="22" y="273.161" width="77" height="48" rx="8" fill="#F56F46"/>
<path d="M34.578 282.893V290.921H33.432V284.105L31.566 285.245L31.068 284.429L33.564 282.893H34.578ZM36.276 290.237V291.161H31.404V290.237H36.276ZM40.7953 289.109C41.0873 289.109 41.3313 289.207 41.5273 289.403C41.7233 289.599 41.8213 289.839 41.8213 290.123C41.8213 290.283 41.7993 290.445 41.7553 290.609C41.7153 290.769 41.6433 290.959 41.5393 291.179L40.5853 293.363H39.6193L40.2013 290.963C40.0733 290.871 39.9713 290.751 39.8953 290.603C39.8193 290.451 39.7813 290.289 39.7813 290.117C39.7813 289.837 39.8773 289.599 40.0693 289.403C40.2653 289.207 40.5073 289.109 40.7953 289.109ZM47.8766 282.755C48.4886 282.755 48.9986 282.893 49.4066 283.169C49.8146 283.445 50.1206 283.835 50.3246 284.339C50.5286 284.843 50.6306 285.437 50.6306 286.121C50.6306 286.949 50.5426 287.655 50.3666 288.239C50.1946 288.823 49.9246 289.313 49.5566 289.709C49.1926 290.105 48.7246 290.439 48.1526 290.711C47.5846 290.983 46.9066 291.223 46.1186 291.431L45.8606 290.573C46.6326 290.361 47.2746 290.107 47.7866 289.811C48.3026 289.515 48.6946 289.143 48.9626 288.695C49.2346 288.247 49.3866 287.691 49.4186 287.027L49.4366 286.445C49.4366 285.773 49.3826 285.233 49.2746 284.825C49.1706 284.417 49.0026 284.121 48.7706 283.937C48.5426 283.753 48.2446 283.661 47.8766 283.661C47.3726 283.661 46.9886 283.819 46.7246 284.135C46.4606 284.447 46.3286 284.913 46.3286 285.533C46.3286 286.145 46.4566 286.587 46.7126 286.859C46.9686 287.131 47.3166 287.267 47.7566 287.267C48.1446 287.267 48.4826 287.161 48.7706 286.949C49.0626 286.737 49.3386 286.447 49.5986 286.079L49.5926 286.985C49.3366 287.329 49.0386 287.611 48.6986 287.831C48.3626 288.047 47.9646 288.155 47.5046 288.155C47.0526 288.155 46.6486 288.049 46.2926 287.837C45.9366 287.625 45.6566 287.323 45.4526 286.931C45.2486 286.535 45.1466 286.063 45.1466 285.515C45.1466 284.923 45.2686 284.423 45.5126 284.015C45.7566 283.603 46.0846 283.291 46.4966 283.079C46.9086 282.863 47.3686 282.755 47.8766 282.755ZM54.9459 290.393C55.4059 290.393 55.7679 290.309 56.0319 290.141C56.2999 289.973 56.4339 289.745 56.4339 289.457C56.4339 289.273 56.3979 289.115 56.3259 288.983C56.2579 288.851 56.1139 288.731 55.8939 288.623C55.6779 288.515 55.3499 288.405 54.9099 288.293C54.4819 288.185 54.1079 288.059 53.7879 287.915C53.4679 287.771 53.2199 287.583 53.0439 287.351C52.8719 287.119 52.7859 286.819 52.7859 286.451C52.7859 286.091 52.8859 285.779 53.0859 285.515C53.2899 285.251 53.5759 285.047 53.9439 284.903C54.3159 284.759 54.7479 284.687 55.2399 284.687C55.7599 284.687 56.2119 284.757 56.5959 284.897C56.9839 285.033 57.3119 285.201 57.5799 285.401L57.0879 286.151C56.8439 285.987 56.5759 285.853 56.2839 285.749C55.9959 285.645 55.6559 285.593 55.2639 285.593C54.7959 285.593 54.4619 285.665 54.2619 285.809C54.0659 285.949 53.9679 286.135 53.9679 286.367C53.9679 286.539 54.0159 286.683 54.1119 286.799C54.2119 286.911 54.3819 287.015 54.6219 287.111C54.8619 287.207 55.1939 287.313 55.6179 287.429C56.0299 287.541 56.3899 287.673 56.6979 287.825C57.0059 287.977 57.2439 288.177 57.4119 288.425C57.5839 288.669 57.6699 288.991 57.6699 289.391C57.6699 289.843 57.5399 290.211 57.2799 290.495C57.0199 290.775 56.6819 290.981 56.2659 291.113C55.8539 291.245 55.4139 291.311 54.9459 291.311C54.3699 291.311 53.8739 291.227 53.4579 291.059C53.0459 290.891 52.6999 290.685 52.4199 290.441L53.0559 289.709C53.3039 289.913 53.5879 290.079 53.9079 290.207C54.2279 290.331 54.5739 290.393 54.9459 290.393Z" fill="white"/>
<rect x="30" y="301.161" width="61" height="2" rx="1" fill="white"/>
<rect x="30" y="311.161" width="44" height="2" rx="1" fill="#FCCFDA"/>
<rect x="22" y="329.161" width="77" height="38" rx="8" fill="#FFD147"/>
<path d="M34.578 338.893V346.921H33.432V340.105L31.566 341.245L31.068 340.429L33.564 338.893H34.578ZM36.276 346.237V347.161H31.404V346.237H36.276ZM40.7953 345.109C41.0873 345.109 41.3313 345.207 41.5273 345.403C41.7233 345.599 41.8213 345.839 41.8213 346.123C41.8213 346.283 41.7993 346.445 41.7553 346.609C41.7153 346.769 41.6433 346.959 41.5393 347.179L40.5853 349.363H39.6193L40.2013 346.963C40.0733 346.871 39.9713 346.751 39.8953 346.603C39.8193 346.451 39.7813 346.289 39.7813 346.117C39.7813 345.837 39.8773 345.599 40.0693 345.403C40.2653 345.207 40.5073 345.109 40.7953 345.109ZM47.6366 338.743C48.1766 338.743 48.6366 338.845 49.0166 339.049C49.3966 339.253 49.6866 339.531 49.8866 339.883C50.0866 340.235 50.1866 340.629 50.1866 341.065C50.1866 341.437 50.1226 341.801 49.9946 342.157C49.8666 342.513 49.6586 342.887 49.3706 343.279C49.0866 343.667 48.7126 344.099 48.2486 344.575C47.7846 345.051 47.2166 345.595 46.5446 346.207H50.3786L50.2406 347.161H45.2306V346.255C45.8386 345.671 46.3586 345.159 46.7906 344.719C47.2266 344.275 47.5866 343.885 47.8706 343.549C48.1546 343.213 48.3786 342.911 48.5426 342.643C48.7066 342.371 48.8206 342.115 48.8846 341.875C48.9526 341.631 48.9866 341.379 48.9866 341.119C48.9866 340.675 48.8606 340.325 48.6086 340.069C48.3606 339.813 48.0146 339.685 47.5706 339.685C47.1746 339.685 46.8486 339.755 46.5926 339.895C46.3406 340.031 46.0866 340.253 45.8306 340.561L45.0626 339.967C45.3866 339.563 45.7526 339.259 46.1606 339.055C46.5686 338.847 47.0606 338.743 47.6366 338.743ZM54.8139 338.743C55.3459 338.743 55.8039 338.837 56.1879 339.025C56.5759 339.213 56.8739 339.465 57.0819 339.781C57.2939 340.097 57.3999 340.443 57.3999 340.819C57.3999 341.155 57.3259 341.459 57.1779 341.731C57.0339 341.999 56.8379 342.221 56.5899 342.397C56.3459 342.573 56.0739 342.693 55.7739 342.757C56.1059 342.785 56.4139 342.879 56.6979 343.039C56.9859 343.195 57.2179 343.419 57.3939 343.711C57.5739 343.999 57.6639 344.357 57.6639 344.785C57.6639 345.261 57.5419 345.691 57.2979 346.075C57.0579 346.455 56.7179 346.757 56.2779 346.981C55.8379 347.201 55.3259 347.311 54.7419 347.311C54.2539 347.311 53.7779 347.219 53.3139 347.035C52.8539 346.851 52.4619 346.567 52.1379 346.183L52.8819 345.559C53.1179 345.835 53.3959 346.041 53.7159 346.177C54.0359 346.309 54.3639 346.375 54.6999 346.375C55.2479 346.375 55.6779 346.233 55.9899 345.949C56.3059 345.661 56.4639 345.267 56.4639 344.767C56.4639 344.387 56.3919 344.087 56.2479 343.867C56.1079 343.647 55.9119 343.489 55.6599 343.393C55.4119 343.297 55.1259 343.249 54.8019 343.249H54.0999L54.2379 342.373H54.7299C54.9939 342.373 55.2419 342.323 55.4739 342.223C55.7059 342.123 55.8939 341.971 56.0379 341.767C56.1819 341.559 56.2539 341.299 56.2539 340.987C56.2539 340.555 56.1079 340.225 55.8159 339.997C55.5239 339.765 55.1679 339.649 54.7479 339.649C54.3959 339.649 54.0859 339.713 53.8179 339.841C53.5499 339.965 53.2819 340.153 53.0139 340.405L52.3899 339.721C52.7459 339.385 53.1279 339.139 53.5359 338.983C53.9439 338.823 54.3699 338.743 54.8139 338.743ZM65.1713 338.893L65.6393 347.161H64.5233L64.2893 342.967C64.2773 342.671 64.2673 342.377 64.2593 342.085C64.2513 341.789 64.2453 341.507 64.2413 341.239C64.2413 340.971 64.2413 340.727 64.2413 340.507C64.2453 340.287 64.2493 340.105 64.2533 339.961L62.9333 345.691H61.8173L60.4013 339.961C60.4093 340.101 60.4153 340.285 60.4193 340.513C60.4273 340.741 60.4313 340.993 60.4313 341.269C60.4353 341.545 60.4353 341.829 60.4313 342.121C60.4273 342.413 60.4213 342.695 60.4133 342.967L60.2153 347.161H59.1233L59.5913 338.893H61.1333L62.4053 344.503L63.6173 338.893H65.1713ZM68.2746 341.629C68.4986 341.333 68.7606 341.103 69.0606 340.939C69.3646 340.771 69.6946 340.687 70.0506 340.687C70.6106 340.687 71.0646 340.825 71.4126 341.101C71.7606 341.373 72.0146 341.757 72.1746 342.253C72.3346 342.745 72.4146 343.325 72.4146 343.993C72.4146 344.633 72.3186 345.203 72.1266 345.703C71.9346 346.203 71.6526 346.597 71.2806 346.885C70.9086 347.169 70.4506 347.311 69.9066 347.311C69.1826 347.311 68.6166 347.047 68.2086 346.519L68.1366 347.161H67.1226V338.293L68.2746 338.155V341.629ZM69.6246 346.405C70.1206 346.405 70.5026 346.209 70.7706 345.817C71.0426 345.421 71.1786 344.813 71.1786 343.993C71.1786 343.445 71.1246 342.995 71.0166 342.643C70.9086 342.287 70.7486 342.023 70.5366 341.851C70.3286 341.679 70.0726 341.593 69.7686 341.593C69.4406 341.593 69.1506 341.693 68.8986 341.893C68.6466 342.089 68.4386 342.313 68.2746 342.565V345.625C68.4346 345.865 68.6306 346.055 68.8626 346.195C69.0946 346.335 69.3486 346.405 69.6246 346.405Z" fill="white"/>
<rect x="30" y="357.161" width="61" height="2" rx="1" fill="#FFEBAD"/>
</g>
</g>
<defs>
<filter id="filter0_d_270_107731" x="59.9983" y="73.1304" width="318" height="346" filterUnits="userSpaceOnUse" color-interpolation-filters="sRGB">
<feFlood flood-opacity="0" result="BackgroundImageFix"/>
<feColorMatrix in="SourceAlpha" type="matrix" values="0 0 0 0 0 0 0 0 0 0 0 0 0 0 0 0 0 0 127 0" result="hardAlpha"/>
<feOffset dy="4.96386"/>
<feGaussianBlur stdDeviation="12"/>
<feColorMatrix type="matrix" values="0 0 0 0 0 0 0 0 0 0 0 0 0 0 0 0 0 0 0.15 0"/>
<feBlend mode="normal" in2="BackgroundImageFix" result="effect1_dropShadow_270_107731"/>
<feBlend mode="normal" in="SourceGraphic" in2="effect1_dropShadow_270_107731" result="shape"/>
</filter>
<filter id="filter1_d_270_107731" x="-18" y="181.161" width="156.712" height="229.839" filterUnits="userSpaceOnUse" color-interpolation-filters="sRGB">
<feFlood flood-opacity="0" result="BackgroundImageFix"/>
<feColorMatrix in="SourceAlpha" type="matrix" values="0 0 0 0 0 0 0 0 0 0 0 0 0 0 0 0 0 0 127 0" result="hardAlpha"/>
<feOffset dy="4"/>
<feGaussianBlur stdDeviation="12"/>
<feColorMatrix type="matrix" values="0 0 0 0 0 0 0 0 0 0 0 0 0 0 0 0 0 0 0.05 0"/>
<feBlend mode="normal" in2="BackgroundImageFix" result="effect1_dropShadow_270_107731"/>
<feBlend mode="normal" in="SourceGraphic" in2="effect1_dropShadow_270_107731" result="shape"/>
</filter>
<linearGradient id="paint0_linear_270_107731" x1="47.3994" y1="486.879" x2="52.2463" y2="-171.17" gradientUnits="userSpaceOnUse">
<stop stop-color="#E25D35"/>
<stop offset="0.260417" stop-color="#F56F46"/>
<stop offset="1" stop-color="#FFD147"/>
</linearGradient>
<linearGradient id="paint1_linear_270_107731" x1="69.0425" y1="261.667" x2="71.6109" y2="-187.061" gradientUnits="userSpaceOnUse">
<stop stop-color="#E25D35"/>
<stop offset="0.260417" stop-color="#F56F46"/>
<stop offset="1" stop-color="#FFD147"/>
</linearGradient>
<linearGradient id="paint2_linear_270_107731" x1="97.9475" y1="127.132" x2="101.818" y2="-368.32" gradientUnits="userSpaceOnUse">
<stop stop-color="#E25D35"/>
<stop offset="0.260417" stop-color="#F56F46"/>
<stop offset="1" stop-color="#FFD147"/>
</linearGradient>
<clipPath id="clip0_270_107731">
<rect width="400" height="400" fill="white"/>
</clipPath>
</defs>
</svg>
