<svg xmlns="http://www.w3.org/2000/svg" xmlns:xlink="http://www.w3.org/1999/xlink" id="Layer_1" x="0px" y="0px" viewBox="0 0 2600 2000" style="enable-background:new 0 0 2600 2000;" xml:space="preserve"> <style type="text/css"> .st0{fill:#DCE1E7;} .st1{fill:#FFFFFF;} .st2{fill:#333333;} .st3{fill:#2FC1D6;} .st4{fill:#D8D9D8;} .st5{clip-path:url(#SVGID_00000054236696833234142130000014487291974134979505_);} .st6{fill:#068C9D;} .st7{fill:#04B0C3;} .st8{fill:#F7F8F8;} </style> <g id="_10"> <path class="st0" d="M2529.77,437.3H258.15c-28.93,0-52.39,23.46-52.39,52.39c0,0,0,0,0,0v1447.26 c0.01,28.93,23.46,52.38,52.39,52.38h2271.62c28.93,0.01,52.38-23.44,52.39-52.37c0,0,0-0.01,0-0.01V489.69 c0.01-28.93-23.44-52.38-52.37-52.39C2529.78,437.3,2529.77,437.3,2529.77,437.3z"></path> <path class="st1" d="M2453.24,531.38H339.74c-26.91,0-48.74,20.77-48.74,46.41v1282.17c0,25.63,21.83,46.4,48.74,46.4h2113.5 c26.92,0,48.74-20.77,48.74-46.4V577.79C2501.98,552.15,2480.16,531.38,2453.24,531.38z"></path> <path class="st2" d="M2462.19,531.38H330.79c-21.97-0.01-39.78,17.8-39.79,39.77c0,0.01,0,0.01,0,0.02v68.51h2211v-68.51 c0-21.98-17.81-39.79-39.79-39.79C2462.2,531.38,2462.19,531.38,2462.19,531.38z"></path> <path class="st3" d="M2277.68,772.73h-612.82c-46.92,0-85.3,38.55-85.3,85.65v1048h783.42v-1048 C2362.98,811.28,2324.6,772.73,2277.68,772.73z"></path> <path class="st4" d="M1908.71,1271.43h-220c-10.41,0-18.86,7.8-18.86,17.42s8.45,17.43,18.86,17.43h220 c10.41,0,18.86-7.8,18.86-17.43S1919.12,1271.43,1908.71,1271.43z"></path> <path class="st4" d="M1908.71,1339.59h-220c-10.41,0-18.86,7.79-18.86,17.42s8.45,17.42,18.86,17.42h220 c10.41,0,18.86-7.79,18.86-17.42S1919.12,1339.59,1908.71,1339.59z"></path> <path class="st4" d="M2104.82,1407.73h-416.11c-10.41,0-18.86,7.8-18.86,17.43s8.45,17.42,18.86,17.42h416.11 c10.41,0,18.85-7.79,18.85-17.42S2115.23,1407.73,2104.82,1407.73z"></path> <path class="st4" d="M2214.81,1271.43h-220c-10.41,0-18.86,7.8-18.86,17.42s8.45,17.43,18.86,17.43h220 c10.42,0,18.86-7.8,18.86-17.43S2225.23,1271.43,2214.81,1271.43z"></path> <path class="st4" d="M1908.71,1535.93h-220c-10.41,0-18.86,7.8-18.86,17.43s8.45,17.42,18.86,17.42h220 c10.41,0,18.86-7.8,18.86-17.42S1919.12,1535.93,1908.71,1535.93z"></path> <path class="st4" d="M1908.71,1604.1h-220c-10.41,0-18.86,7.79-18.86,17.42s8.45,17.42,18.86,17.42h220 c10.41,0,18.86-7.79,18.86-17.42S1919.12,1604.1,1908.71,1604.1z"></path> <path class="st4" d="M2104.82,1672.23h-416.11c-10.41,0-18.86,7.8-18.86,17.43s8.45,17.42,18.86,17.42h416.11 c10.41,0,18.85-7.79,18.85-17.42S2115.23,1672.23,2104.82,1672.23z"></path> <path class="st4" d="M2214.81,1535.93h-220c-10.41,0-18.86,7.8-18.86,17.43s8.45,17.42,18.86,17.42h220 c10.42,0,18.86-7.8,18.86-17.42S2225.23,1535.93,2214.81,1535.93z"></path> <path class="st1" d="M2188.53,910.41H1715c-24.93-0.37-45.45,19.54-45.82,44.47s19.54,45.45,44.47,45.82 c0.45,0.01,0.89,0.01,1.34,0h473.53c24.93-0.37,44.84-20.88,44.47-45.82C2232.64,930.47,2212.94,910.77,2188.53,910.41 L2188.53,910.41z"></path> <path class="st0" d="M2051.26,943.68c-6.56,0-11.88,5.32-11.88,11.88s5.32,11.88,11.88,11.88c6.56,0,11.88-5.32,11.88-11.88 c0,0,0-0.01,0-0.01C2063.13,948.99,2057.81,943.68,2051.26,943.68z"></path> <path class="st0" d="M1995.58,943.68c-6.56-0.01-11.88,5.31-11.89,11.87s5.31,11.88,11.87,11.89c6.56,0.01,11.88-5.31,11.89-11.87 c0-0.01,0-0.01,0-0.02C2007.44,948.99,2002.13,943.68,1995.58,943.68z"></path> <path class="st0" d="M1939.89,943.68c-6.56-0.01-11.88,5.31-11.89,11.87s5.31,11.88,11.87,11.89c6.56,0.01,11.88-5.31,11.89-11.87 c0-0.01,0-0.01,0-0.02C1951.75,948.99,1946.44,943.68,1939.89,943.68z"></path> <path class="st0" d="M1884.2,943.68c-6.56-0.01-11.88,5.31-11.89,11.87s5.31,11.88,11.87,11.89c6.56,0.01,11.88-5.31,11.89-11.87 c0-0.01,0-0.01,0-0.02C1896.06,948.99,1890.75,943.68,1884.2,943.68z"></path> <path class="st0" d="M1828.51,943.68c-6.56,0-11.88,5.32-11.88,11.88s5.32,11.88,11.88,11.88c6.56,0,11.88-5.32,11.88-11.88 c0,0,0-0.01,0-0.01C1840.39,948.99,1835.07,943.68,1828.51,943.68C1828.51,943.68,1828.51,943.68,1828.51,943.68z"></path> <path class="st0" d="M1772.82,943.68c-6.56,0-11.88,5.32-11.88,11.88s5.32,11.88,11.88,11.88c6.56,0,11.88-5.32,11.88-11.88 c0,0,0-0.01,0-0.01C1784.7,948.99,1779.38,943.68,1772.82,943.68C1772.82,943.68,1772.82,943.68,1772.82,943.68z"></path> <path class="st0" d="M1717.13,943.68c-6.56,0-11.88,5.32-11.88,11.88s5.32,11.88,11.88,11.88c6.56,0,11.88-5.32,11.88-11.88 c0,0,0-0.01,0-0.01C1729,948.99,1723.68,943.68,1717.13,943.68z"></path> <path class="st3" d="M2202.56,951.1h-58.34c-1.02,0-1.92-0.67-2.22-1.65c-3.04-9.77-13.42-15.23-23.19-12.19 c-9.77,3.04-15.23,13.42-12.2,23.19s13.42,15.23,23.2,12.19c5.82-1.81,10.38-6.37,12.19-12.19c0.3-0.98,1.21-1.65,2.23-1.65h42.05 c0.65,0,1.17,0.52,1.17,1.17v7.13c0,1.77,1.43,3.2,3.2,3.2h1.29c1.77,0.01,3.2-1.42,3.21-3.19c0,0,0-0.01,0-0.01v-7.12 c0-0.65,0.52-1.17,1.17-1.17h0.76c0.65,0,1.17,0.52,1.17,1.17v12.33c0,1.32,1.07,2.39,2.39,2.39c0,0,0.01,0,0.01,0h2.91 c1.32,0,2.39-1.07,2.39-2.39v-17.82c0.01-1.87-1.5-3.38-3.37-3.39C2202.57,951.1,2202.56,951.1,2202.56,951.1z M2122.69,963.1 c-4.51-0.9-7.43-5.28-6.53-9.79s5.28-7.43,9.79-6.53c3.29,0.66,5.87,3.23,6.53,6.53c0.91,4.5-2,8.88-6.5,9.79 C2124.89,963.31,2123.77,963.31,2122.69,963.1L2122.69,963.1z"></path> <path class="st1" d="M2188.53,1055.26H1715c-24.93,0-45.14,20.21-45.14,45.14s20.21,45.14,45.14,45.14h473.53 c24.93,0,45.14-20.21,45.14-45.14S2213.46,1055.26,2188.53,1055.26L2188.53,1055.26L2188.53,1055.26z"></path> <path class="st0" d="M2051.26,1088.52c-6.56,0-11.88,5.32-11.88,11.88s5.32,11.88,11.88,11.88c6.56,0,11.88-5.32,11.88-11.88v0 C2063.14,1093.83,2057.82,1088.52,2051.26,1088.52z"></path> <path class="st0" d="M1995.58,1088.52c-6.56-0.01-11.88,5.31-11.89,11.87s5.31,11.88,11.87,11.89s11.88-5.31,11.89-11.87 c0,0,0-0.01,0-0.01C2007.45,1093.84,2002.13,1088.52,1995.58,1088.52z"></path> <path class="st0" d="M1939.89,1088.52c-6.56-0.01-11.88,5.31-11.89,11.87s5.31,11.88,11.87,11.89s11.88-5.31,11.89-11.87 c0,0,0-0.01,0-0.01C1951.76,1093.84,1946.44,1088.52,1939.89,1088.52z"></path> <path class="st0" d="M1884.2,1088.52c-6.56-0.01-11.88,5.31-11.89,11.87s5.31,11.88,11.87,11.89s11.88-5.31,11.89-11.87 c0,0,0-0.01,0-0.01C1896.07,1093.84,1890.75,1088.52,1884.2,1088.52z"></path> <path class="st0" d="M1828.51,1088.52c-6.56,0-11.88,5.32-11.88,11.88s5.32,11.88,11.88,11.88c6.56,0,11.88-5.32,11.88-11.88v0 c0.01-6.56-5.3-11.87-11.86-11.88C1828.52,1088.52,1828.51,1088.52,1828.51,1088.52z"></path> <path class="st0" d="M1772.82,1088.52c-6.56,0-11.88,5.32-11.88,11.88s5.32,11.88,11.88,11.88c6.56,0,11.88-5.32,11.88-11.88v0 c0.01-6.56-5.3-11.87-11.86-11.88C1772.83,1088.52,1772.82,1088.52,1772.82,1088.52z"></path> <path class="st0" d="M1717.13,1088.52c-6.56,0-11.88,5.32-11.88,11.88s5.32,11.88,11.88,11.88c6.56,0,11.88-5.32,11.88-11.88v0 C1729.01,1093.83,1723.69,1088.52,1717.13,1088.52z"></path> <path class="st3" d="M2163.09,1127.95c-20.36,0-35.72-12.62-43.06-20.14c-2.96-3-2.96-7.83,0-10.83l0,0 c7.34-7.53,22.7-20.14,43.06-20.14s35.9,12.58,43.37,20.09c3,3.03,3,7.9,0,10.93C2198.99,1115.36,2183.39,1127.95,2163.09,1127.95z M2123.61,1100.47c-1.05,1.07-1.05,2.78,0,3.85c5.47,5.6,20.26,18.63,39.48,18.63s34.25-13,39.82-18.62c1.07-1.07,1.07-2.81,0-3.88 c-5.57-5.6-20.61-18.61-39.82-18.61S2129.09,1094.84,2123.61,1100.47z"></path> <g> <defs> <path id="SVGID_1_" d="M2163.09,1127.95c-20.36,0-35.72-12.62-43.06-20.14c-2.96-3-2.96-7.83,0-10.83l0,0 c7.34-7.53,22.7-20.14,43.06-20.14s35.9,12.58,43.37,20.09c3,3.03,3,7.9,0,10.93 C2198.99,1115.36,2183.39,1127.95,2163.09,1127.95z M2123.61,1100.47c-1.05,1.07-1.05,2.78,0,3.85 c5.47,5.6,20.26,18.63,39.48,18.63s34.25-13,39.82-18.62c1.07-1.07,1.07-2.81,0-3.88c-5.57-5.6-20.61-18.61-39.82-18.61 S2129.09,1094.84,2123.61,1100.47z"></path> </defs> <clipPath id="SVGID_00000072989600993172191980000001200510854298421144_"> <use xlink:href="#SVGID_1_" style="overflow:visible;"></use> </clipPath> <g style="clip-path:url(#SVGID_00000072989600993172191980000001200510854298421144_);"> <path class="st3" d="M2163.09,1079.34c-12.74,0-23.06,10.32-23.06,23.06c0,12.74,10.32,23.06,23.06,23.06 s23.06-10.32,23.06-23.06c0-0.02,0-0.04,0-0.06C2186.11,1089.62,2175.8,1079.34,2163.09,1079.34z"></path> </g> </g> <rect x="2159.65" y="1063.06" transform="matrix(0.7922 -0.6103 0.6103 0.7922 -224.5263 1549.6654)" class="st3" width="6.98" height="82.9"></rect> <path class="st6" d="M1313.84,959.9l-324-131.39l-324,131.39v376.5c0,82.92,2.41,133.63,114.16,202.86l209.82,127.32l209.81-127.32 c120.79-72.66,114.2-119.94,114.2-202.86L1313.84,959.9z"></path> <path class="st7" d="M1257.44,1009.95L989.82,901.42l-267.6,108.53v311c0,68.51,6.34,109.52,94.3,167.57l173.3,105.17 l173.31-105.17c97.86-55.31,94.31-99.06,94.31-167.57L1257.44,1009.95z"></path> <path class="st1" d="M989.88,1008.23c-128.34,0-232.4,104-232.4,232.38s104.06,232.41,232.4,232.41s232.39-104,232.39-232.41 S1118.23,1008.23,989.88,1008.23z"></path> <path class="st3" d="M1090.23,1148.87l-124.42,115.54c-6.08,5.64-15.5,5.57-21.5-0.16l-55-52.57c-25.8-24.68-65,14.43-39.17,39.16 c28.33,27.08,56.66,54.16,85,81.24c11.21,10.74,27.92,10.45,39.17,0c51.7-48,103.4-96,155.11-144 C1155.63,1163.71,1116.39,1124.6,1090.23,1148.87z"></path> <path class="st8" d="M2174.68,159.16c-14.63-0.02-29.1,2.99-42.52,8.82c-17.19-94.21-107.49-156.64-201.7-139.45 c-68.87,12.57-123.42,65.31-138.3,133.71c-57.26-14.04-115.06,21-129.1,78.26c-2.03,8.3-3.07,16.81-3.07,25.35 c0,58.92,82.6,64.24,141.53,64.24h343.79c58.93,0,136.06-5.32,136.06-64.24c0.01-58.92-47.75-106.68-106.67-106.69 C2174.69,159.16,2174.68,159.16,2174.68,159.16z"></path> <path class="st3" d="M2353.21,333.78h-8.31c-3.08,0-5.58-2.5-5.58-5.58c0,0,0,0,0,0v-11.71c-0.03-31.94-25.92-57.84-57.86-57.88 c-0.55,0-1.1,0-1.64,0v20.06c0.52,0,1,0,1.56,0c19.68,0.02,35.63,15.98,35.65,35.66v12.37c0,3.91-3.17,7.08-7.08,7.08 c0,0-0.01,0-0.01,0h-57.14c-3.91,0-7.08-3.17-7.08-7.08c0,0,0,0,0,0v-12.36c0.01-12.22,6.28-23.59,16.61-30.12l-1.68-21.72 c-22.31,8.63-37.03,30.08-37.07,54v11.7c0,3.08-2.5,5.58-5.58,5.58l0,0h-8.28c-10.92-0.02-19.81,8.79-19.89,19.71V466.1 c0,10.98,8.9,19.88,19.88,19.88h143.5c10.92-0.07,19.73-8.96,19.71-19.88V353.49C2372.88,342.61,2364.08,333.81,2353.21,333.78z M2293.93,413.26c-3.16,2.13-5.05,5.68-5.05,9.49v39.85c-0.02,1.14-0.95,2.06-2.09,2.08h-13.78c-1.19,0.06-2.2-0.85-2.26-2.04 c0-0.01,0-0.03,0-0.04v-39.84c-0.01-3.83-1.91-7.4-5.09-9.53c-11.55-7.79-14.61-23.47-6.82-35.02 c5.07-7.52,13.78-11.74,22.82-11.06c13.19,1.05,23.38,12.03,23.43,25.26C2305.07,400.78,2300.89,408.6,2293.93,413.26z"></path> <path class="st8" d="M392.04,370.42c-5.3,0-10.59,0.64-15.74,1.9c-12.59-57.69-69.56-94.24-127.25-81.65 c-42.12,9.19-74.59,42.78-82.36,85.18c-33.35-14.46-72.11,0.86-86.57,34.21c-3.58,8.25-5.43,17.15-5.43,26.14 c0,36.33,47.56,39.61,83.89,39.61h212c36.33,0,87.26-3.28,87.26-39.61c0-36.33-29.45-65.78-65.78-65.78 C392.05,370.42,392.04,370.42,392.04,370.42z"></path> <path class="st3" d="M118.87,478.1h-4.74c-2.1,0-3.8-1.7-3.8-3.8v-6.87c0-14.77-9.08-28.01-22.86-33.33l-1,13.39 c6.37,4.04,10.22,11.07,10.21,18.61v8.19c-0.01,2.1-1.71,3.8-3.81,3.8H56.51c-2.1,0-3.8-1.7-3.8-3.8v-8.19c0-12.15,9.85-22,22-22 l0,0h1v-12.35c-19.72-0.53-36.14,15.03-36.67,34.75c-0.01,0.31-0.01,0.62-0.01,0.92v6.87c0,2.1-1.7,3.8-3.8,3.8h-4.84 c-6.7,0.02-12.13,5.45-12.15,12.15v69.45c-0.02,6.73,5.42,12.22,12.15,12.26h88.47c6.77,0,12.26-5.49,12.26-12.26 c0,0,0-0.01,0-0.01v-69.44C131.07,483.51,125.59,478.08,118.87,478.1z M83.17,527.83c-1.19,0.66-1.93,1.92-1.93,3.29v26.4 c0.01,0.71-0.56,1.28-1.27,1.29c0,0-0.01,0-0.01,0h-8.57c-0.71-0.01-1.28-0.58-1.29-1.29V531.1c0.02-1.35-0.7-2.61-1.87-3.28 c-5.04-2.72-8.18-7.99-8.16-13.72c0.25-8.61,7.44-15.38,16.04-15.12c8.3,0.24,14.96,6.96,15.13,15.26 c-0.02,5.66-3.11,10.86-8.07,13.58L83.17,527.83z"></path> <path class="st3" d="M617.73,193.1h-33.08c-2.76,0-5,2.24-5,5v33c0,2.23,2.85,3.79,5.1,1.23v-34.15h34.18 C621.51,195.92,619.95,193.1,617.73,193.1z"></path> <path class="st3" d="M617.73,362.1h-33v-34.19c-2.25-2.55-5.1-1-5.1,1.23v33.08c0,2.76,2.24,5,5,5h34.3 C621.51,364.95,619.95,362.1,617.73,362.1z"></path> <path class="st3" d="M1474.77,193.1h-34.3c-2.56,2.25-1,5.1,1.23,5.1h33v34.18c2.25,2.56,5.1,1,5.1-1.23V198.1c0-2.76-2.24-5-5-5 C1474.79,193.1,1474.78,193.1,1474.77,193.1z"></path> <path class="st3" d="M1474.65,327.91v34.19h-34.18c-2.56,2.25-1,5.1,1.23,5.1h33.08c2.76,0,5-2.24,5-5v-33.1 C1479.75,326.91,1476.9,325.36,1474.65,327.91z"></path> <path class="st1" d="M1356.39,218.24H707.05c-34.18-0.43-62.25,26.92-62.68,61.11c-0.44,34.18,26.92,62.25,61.11,62.68 c0.53,0.01,1.05,0.01,1.58,0h649.34c34.18,0.43,62.25-26.92,62.68-61.11s-26.92-62.25-61.11-62.68 C1357.44,218.23,1356.91,218.23,1356.39,218.24z"></path> <path class="st0" d="M762,263.85c-9,0-16.29,7.29-16.29,16.29S753,296.43,762,296.43c9,0,16.29-7.29,16.29-16.29 c0-0.01,0-0.03,0-0.04C778.27,271.11,770.98,263.84,762,263.85z"></path> <path class="st0" d="M838.39,263.85c-9-0.02-16.31,7.25-16.33,16.25c-0.02,9,7.25,16.31,16.25,16.33c9,0.02,16.31-7.25,16.33-16.25 c0-0.03,0-0.05,0-0.08C854.62,271.13,847.35,263.86,838.39,263.85z"></path> <path class="st0" d="M914.72,263.85c-9-0.01-16.29,7.28-16.3,16.28s7.28,16.29,16.28,16.3c9,0.01,16.29-7.28,16.3-16.28 c0-0.02,0-0.03,0-0.05C930.98,271.12,923.7,263.85,914.72,263.85z"></path> <path class="st0" d="M991.08,263.85c-9,0.01-16.28,7.31-16.27,16.31c0.01,9,7.31,16.28,16.31,16.27s16.28-7.31,16.27-16.31 c0-0.01,0-0.01,0-0.02C1007.36,271.11,1000.06,263.83,991.08,263.85z"></path> <path class="st0" d="M1067.39,263.85c-9,0.02-16.27,7.33-16.25,16.33s7.33,16.27,16.33,16.25c9-0.02,16.27-7.33,16.25-16.33 c-0.02-8.99-7.32-16.27-16.31-16.25C1067.4,263.85,1067.39,263.85,1067.39,263.85z"></path> <path class="st0" d="M1143.79,263.85c-9-0.01-16.29,7.28-16.3,16.28s7.28,16.29,16.28,16.3c9,0.01,16.29-7.28,16.3-16.28 c0-0.02,0-0.03,0-0.05C1160.05,271.12,1152.77,263.85,1143.79,263.85z"></path> <path class="st0" d="M1208.22,292.1c17.43,13.28,37.13-6.42,23.86-23.85C1214.65,254.94,1194.95,274.63,1208.22,292.1z"></path> <path class="st0" d="M1289.45,292.1c17.43,13.28,37.13-6.42,23.86-23.85C1295.88,254.94,1276.18,274.63,1289.45,292.1z"></path> </g> </svg>